<?xml version="1.0" standalone="no"?>
<!DOCTYPE svg PUBLIC "-//W3C//DTD SVG 20010904//EN"
 "http://www.w3.org/TR/2001/REC-SVG-20010904/DTD/svg10.dtd">
<svg version="1.0" xmlns="http://www.w3.org/2000/svg"
 width="2048.000000pt" height="2048.000000pt" viewBox="0 0 2048.000000 2048.000000"
 preserveAspectRatio="xMidYMid meet">
<metadata>
Created by potrace 1.15, written by Peter Selinger 2001-2017
</metadata>
<g transform="translate(0.000000,2048.000000) scale(0.100000,-0.100000)"
fill="#000000" stroke="none">
<path d="M8830 16252 c-8 -9 -14 -20 -12 -24 1 -5 -9 -8 -21 -8 -15 0 -44 -19
-76 -50 -46 -44 -51 -53 -39 -67 12 -15 11 -15 -9 -2 -13 8 -23 18 -23 23 0 6
-6 1 -14 -10 -15 -19 -15 -19 -11 1 2 11 4 23 4 27 1 4 7 5 15 2 8 -3 23 -1
33 5 17 10 17 10 0 11 -10 0 -16 4 -12 10 3 5 13 7 23 4 14 -5 14 -3 -2 10
-19 15 -18 16 12 22 36 7 44 22 10 19 -13 -1 -29 2 -36 8 -9 8 -12 7 -10 -3 2
-7 -3 -15 -10 -17 -8 -3 -10 2 -6 14 5 17 5 17 -6 1 -6 -10 -17 -18 -25 -18
-16 0 -48 -30 -40 -38 3 -3 12 3 21 14 14 18 15 18 4 -3 -6 -13 -15 -23 -20
-23 -6 0 -10 -9 -10 -19 0 -28 -16 -34 -43 -17 -33 22 -90 5 -121 -37 -41 -55
-48 -77 -45 -140 1 -34 2 -83 3 -109 1 -25 4 -44 8 -42 4 2 10 -1 14 -7 4 -7
3 -9 -3 -6 -6 4 -17 -1 -24 -10 -12 -14 -12 -16 2 -11 12 5 16 1 15 -15 -1
-12 3 -25 9 -29 6 -5 4 -8 -5 -8 -10 0 -11 -3 -4 -8 6 -4 15 -18 19 -31 5 -18
4 -22 -6 -16 -8 5 -11 4 -6 -1 11 -12 30 -12 38 -1 3 5 9 1 12 -8 4 -9 3 -13
-3 -10 -6 3 -10 1 -10 -5 0 -6 -6 -8 -12 -4 -7 4 -4 -2 6 -14 16 -18 22 -20
34 -9 13 9 14 9 8 0 -4 -8 -2 -13 4 -13 6 0 8 -5 5 -10 -4 -6 -12 -7 -18 -3
-7 4 -6 0 2 -10 17 -21 31 -22 31 -1 0 8 5 12 10 9 6 -3 10 0 10 7 0 8 5 6 11
-4 5 -10 19 -18 30 -18 22 0 42 -17 47 -40 2 -8 12 -20 23 -28 10 -7 27 -28
36 -45 9 -18 18 -27 20 -20 6 16 60 6 94 -18 14 -10 29 -16 32 -13 3 3 3 -3 0
-15 -3 -12 -1 -21 6 -21 6 0 11 5 11 11 0 5 5 7 11 4 6 -4 8 -9 5 -12 -3 -3
-1 -13 4 -23 11 -21 -14 -99 -38 -119 -16 -13 -16 -13 1 -8 9 4 17 2 17 -3 0
-6 -6 -10 -12 -10 -8 0 -9 -3 -3 -8 6 -4 11 -16 12 -27 4 -46 9 -61 23 -73 13
-12 13 -13 0 -6 -13 7 -13 6 0 -12 8 -10 18 -21 22 -24 4 -3 9 -16 11 -29 2
-12 10 -27 18 -32 11 -7 11 -9 1 -9 -7 0 -10 -5 -7 -11 4 -6 13 -8 20 -5 9 3
12 -2 10 -16 -3 -13 2 -22 15 -25 12 -3 17 -10 13 -21 -4 -10 -2 -13 6 -8 7 4
10 2 9 -5 -2 -7 8 -18 22 -26 14 -7 23 -13 20 -14 -3 0 -13 -2 -22 -4 -10 -2
-18 3 -18 11 0 8 -4 14 -9 14 -5 0 -13 10 -16 21 -5 15 -9 18 -15 9 -4 -7 -1
-20 9 -30 21 -22 46 -59 46 -68 1 -36 50 -106 68 -95 4 2 6 0 5 -6 -2 -5 6
-17 17 -25 16 -13 17 -15 2 -10 -12 5 -16 2 -11 -9 3 -9 13 -13 25 -10 13 4
19 0 19 -11 0 -10 4 -15 9 -12 5 3 11 -2 13 -12 3 -10 14 -18 24 -20 10 -1 28
-4 39 -6 11 -2 23 -5 27 -5 3 -1 9 -9 11 -18 4 -17 5 -17 6 0 1 18 31 25 31 6
0 -5 -5 -7 -11 -3 -7 4 -9 0 -5 -14 4 -12 2 -23 -5 -28 -8 -5 -9 -3 -4 6 6 10
3 12 -13 8 -12 -4 -22 -2 -22 3 0 4 -7 6 -15 3 -21 -8 -9 -24 14 -19 19 3 36
-19 27 -34 -3 -4 -7 -20 -10 -35 -6 -33 -17 -46 -23 -28 -3 6 -8 10 -13 7 -5
-3 -16 2 -25 11 -21 21 -28 13 -16 -17 5 -13 10 -19 11 -14 0 6 4 4 8 -3 5 -7
18 -14 31 -17 13 -2 19 0 15 6 -4 7 1 9 11 7 10 -1 26 -18 36 -35 16 -29 16
-33 3 -33 -8 0 -13 -4 -9 -9 3 -5 0 -13 -5 -16 -27 -17 -46 -118 -27 -142 5
-7 6 -16 3 -21 -45 -73 61 -280 148 -288 74 -6 92 -10 104 -21 12 -12 35 -18
56 -14 4 1 14 -3 20 -9 7 -5 17 -6 22 -2 4 4 2 -2 -6 -12 -8 -11 -10 -17 -4
-13 13 8 110 -19 119 -32 3 -5 -3 -8 -12 -6 -10 2 -18 4 -18 5 0 1 -7 3 -15 5
-8 2 -24 6 -35 9 -11 4 -2 -3 20 -14 22 -11 48 -18 58 -16 9 2 17 -1 17 -7 0
-7 5 -5 10 3 6 10 10 11 10 3 0 -7 5 -13 11 -13 8 0 7 5 -1 15 -15 18 -22 68
-9 59 5 -3 6 -11 3 -17 -5 -8 -3 -8 7 1 15 14 33 16 25 3 -8 -12 138 -62 221
-77 14 -3 40 -12 57 -21 17 -10 36 -16 41 -14 6 1 6 -1 2 -6 -16 -15 -67 -11
-68 6 0 10 -2 12 -6 4 -2 -7 -12 -13 -21 -13 -13 0 -14 2 -3 9 7 5 9 11 5 13
-23 12 -105 30 -117 25 -8 -3 -19 -1 -24 4 -6 6 -10 4 -10 -5 0 -8 3 -15 6
-14 38 4 91 -4 86 -13 -4 -6 -14 -8 -24 -4 -10 4 -13 3 -6 -4 6 -5 21 -11 35
-14 14 -2 63 -15 110 -29 47 -14 114 -33 150 -43 36 -9 75 -21 88 -26 18 -7
21 -6 16 3 -6 10 -5 10 8 0 12 -10 18 -10 27 2 10 12 8 17 -8 26 -12 6 -21 7
-22 3 0 -4 -4 1 -9 12 -8 19 -9 19 -9 1 -1 -16 -4 -17 -13 -8 -7 7 -27 12 -46
12 -18 0 -31 4 -28 9 4 5 22 8 41 7 32 -3 33 -2 23 18 -6 12 -7 18 -3 14 5 -4
15 -2 24 5 14 10 14 10 3 -4 -11 -14 -9 -18 13 -23 26 -7 45 5 59 34 3 8 4 5
2 -8 -3 -17 0 -22 12 -20 9 1 27 -3 40 -10 12 -7 22 -9 22 -5 0 4 5 2 12 -5
17 -17 25 -15 31 8 4 15 -2 26 -20 37 -24 16 -26 16 -40 -3 -14 -18 -15 -18
-8 5 5 16 4 21 -4 17 -6 -4 -17 -4 -23 1 -7 4 -22 9 -33 11 -27 5 -37 8 -57
16 -9 4 -22 5 -28 1 -7 -4 -10 5 -8 28 2 31 5 35 26 34 36 -3 38 19 3 39 -16
10 -27 22 -24 27 4 6 1 7 -7 2 -7 -4 -16 -2 -21 6 -6 10 -9 11 -9 2 0 -7 -5
-13 -11 -13 -5 0 -7 5 -4 10 3 6 -1 10 -9 10 -8 0 -35 7 -58 14 -24 8 -54 17
-68 20 -14 2 -45 9 -70 15 -51 13 -107 22 -133 22 -9 0 -15 4 -12 10 4 5 -4 9
-17 9 -21 0 -66 6 -78 10 -3 1 -8 2 -12 1 -5 0 -8 4 -8 10 0 5 -4 8 -9 4 -5
-3 -12 -1 -15 4 -4 5 -17 8 -31 6 -14 -1 -25 1 -25 6 0 5 -7 6 -15 3 -8 -4
-15 -1 -15 6 0 6 -5 8 -10 5 -6 -3 -13 1 -16 9 -3 9 -10 13 -15 10 -5 -3 -9 0
-9 6 0 6 -4 8 -10 5 -5 -3 -10 -2 -10 4 0 10 -38 27 -52 23 -5 -1 -8 2 -8 8 0
5 -7 10 -15 10 -23 0 -29 26 -15 61 16 38 46 55 66 38 8 -7 14 -8 13 -3 -4 21
3 24 34 11 17 -8 35 -15 40 -15 4 -1 8 -2 10 -3 1 0 11 -2 22 -4 12 -2 39 -12
60 -21 22 -10 44 -17 49 -15 4 1 6 -9 2 -22 -4 -19 0 -27 21 -38 14 -8 34 -13
45 -11 10 2 18 -1 18 -7 0 -6 7 -8 15 -5 11 5 14 2 9 -12 -4 -11 -4 -16 0 -12
5 4 19 3 32 -2 20 -8 24 -6 24 8 0 15 2 15 10 2 6 -10 6 -16 0 -18 -6 -2 -10
-10 -10 -18 0 -9 5 -12 10 -9 6 3 10 1 10 -4 0 -6 3 -10 8 -9 19 4 64 -17 81
-38 10 -13 21 -20 25 -17 3 3 6 1 6 -6 0 -9 5 -9 20 -1 11 6 20 20 20 32 0 16
4 19 23 14 12 -3 28 -6 35 -6 8 0 10 -5 6 -12 -5 -10 -4 -10 6 -1 9 9 22 8 51
-2 22 -8 39 -12 39 -8 0 3 6 1 13 -5 6 -5 35 -13 62 -16 28 -4 58 -9 68 -12
13 -4 16 0 15 17 -2 12 3 24 12 26 13 4 13 3 0 -7 -12 -10 -11 -11 8 -7 12 3
22 1 22 -4 0 -5 6 -8 13 -7 6 2 13 -4 13 -12 3 -32 6 -34 14 -15 l9 20 0 -20
c1 -11 5 -16 9 -10 4 6 17 16 29 22 18 11 21 10 17 -1 -6 -15 47 -33 65 -22
15 10 24 -14 11 -29 -9 -11 -9 -15 -1 -15 6 0 11 5 11 11 0 5 4 7 10 4 6 -3 7
1 4 9 -3 9 -1 16 4 16 6 0 0 12 -14 27 -17 19 -34 27 -50 25 -13 -2 -24 1 -24
7 0 6 3 10 8 10 38 -6 44 26 7 43 -13 6 -27 19 -30 29 -4 10 -9 18 -13 18 -4
-1 -10 0 -14 1 -5 1 -12 4 -18 5 -5 1 -11 3 -12 5 -2 1 -16 4 -33 6 -16 3 -37
7 -45 11 -8 3 -18 5 -22 5 -5 -1 -8 3 -8 10 0 9 -3 9 -12 0 -10 -10 -10 -15 2
-22 9 -6 17 -5 22 3 4 7 8 7 8 2 0 -6 32 -19 70 -29 39 -10 70 -22 70 -26 0
-13 -18 -22 -24 -11 -3 5 -36 17 -73 27 -38 9 -72 21 -78 24 -5 4 -23 6 -40 4
-19 -2 -25 0 -16 5 9 6 10 11 2 15 -6 4 -11 4 -11 0 0 -3 -6 -2 -12 3 -7 6
-34 9 -60 9 -26 -1 -44 3 -41 8 3 5 -6 7 -21 4 -14 -3 -26 -1 -26 3 0 5 -8 9
-17 9 -15 0 -16 -2 -3 -10 10 -7 11 -10 2 -10 -7 0 -15 7 -19 16 -5 13 -7 13
-14 2 -6 -8 -9 -9 -9 -1 0 7 -9 9 -22 6 -13 -3 -20 -2 -16 2 4 4 0 14 -10 22
-9 8 -12 12 -5 9 6 -4 14 0 16 6 4 10 6 10 6 1 1 -7 6 -13 12 -13 5 0 8 4 5 9
-4 5 0 12 6 15 9 4 8 5 -2 4 -8 -1 -28 4 -44 11 -16 6 -36 9 -44 6 -18 -7 -10
16 10 29 17 10 101 -10 94 -23 -2 -3 14 -6 36 -7 22 0 43 -6 48 -13 4 -8 12
-11 18 -7 6 3 13 0 16 -6 3 -7 5 -4 3 7 -1 11 -7 20 -12 21 -6 0 -27 4 -47 8
-33 7 -36 10 -27 27 5 11 14 17 19 14 4 -3 11 1 13 7 4 10 6 10 6 1 1 -7 7
-11 14 -9 6 1 9 1 5 -1 -9 -6 2 -33 14 -33 5 0 6 6 2 13 -6 9 -5 9 8 0 8 -7
19 -9 23 -5 5 4 5 1 1 -5 -5 -9 -1 -13 11 -13 11 0 24 -5 31 -12 7 -7 12 -8
12 -4 0 5 7 3 15 -4 10 -8 15 -9 15 -2 0 20 35 31 73 22 21 -4 39 -4 43 1 3 5
11 9 17 9 8 0 8 -3 -1 -9 -10 -6 -10 -10 3 -21 13 -11 16 -11 13 0 -2 7 3 15
10 17 8 3 10 -1 6 -14 -6 -15 -4 -16 7 -5 7 6 18 12 23 12 6 0 4 -4 -4 -10 -8
-5 -11 -12 -7 -17 7 -7 19 5 31 32 3 6 12 1 21 -10 16 -20 17 -20 13 5 -2 17
1 24 10 22 8 -1 12 5 10 15 -2 10 -9 19 -16 19 -6 1 -17 2 -23 3 -5 0 -8 5 -4
11 3 5 12 7 20 3 17 -6 21 12 5 22 -6 4 -8 11 -4 16 4 6 11 6 20 -2 8 -6 14
-8 14 -5 0 4 10 0 22 -8 25 -18 42 -21 34 -7 -4 5 0 11 6 14 18 5 -8 37 -31
38 -10 0 -11 2 -3 6 6 2 12 18 12 35 0 25 -3 29 -20 25 -12 -3 -17 -1 -14 5 3
5 -2 16 -12 23 -15 11 -16 14 -4 15 10 0 11 3 4 8 -15 10 -25 65 -10 59 41
-18 46 -18 46 -8 0 9 5 9 21 1 11 -7 23 -9 27 -6 3 3 0 6 -6 6 -6 0 -9 6 -6
14 3 8 12 12 20 9 8 -3 14 1 14 11 0 21 -22 16 -38 -9 -12 -19 -13 -19 -7 2 9
32 -3 47 -23 31 -13 -11 -14 -11 -7 1 6 11 3 13 -13 9 -12 -4 -20 -2 -16 3 3
5 -1 9 -10 9 -8 0 -17 -6 -19 -12 -3 -8 -6 -6 -6 5 -1 11 -9 17 -23 17 -22 0
-63 19 -43 20 6 0 3 5 -5 10 -12 8 -13 12 -2 19 10 6 8 10 -10 16 -12 4 -26 7
-30 6 -5 -1 -8 9 -8 21 0 17 -3 19 -9 10 -6 -10 -10 -9 -14 7 -3 12 -9 20 -14
19 -4 -2 -19 5 -33 15 -13 9 -20 17 -14 17 9 0 22 19 42 64 3 5 0 6 -6 2 -6
-4 -8 2 -5 14 4 15 -2 22 -21 30 -27 10 -27 30 -1 30 23 0 27 31 5 37 -11 3
-20 9 -20 13 0 10 19 8 40 -4 12 -7 13 -6 3 5 -16 16 -17 40 -2 37 6 -2 14 3
16 10 3 7 1 12 -4 11 -16 -3 -53 13 -48 21 3 5 -6 7 -20 6 -13 -2 -22 1 -19 5
3 5 1 9 -5 9 -6 0 -19 10 -30 22 -14 15 -31 21 -56 20 -25 -1 -35 3 -35 13 0
15 -11 19 -39 16 -11 -2 -11 0 0 12 8 8 17 13 22 10 4 -2 7 0 7 6 0 6 -12 18
-27 26 -16 9 -20 14 -10 11 11 -4 17 0 17 11 0 9 8 22 18 29 16 13 16 14 -2 7
-13 -4 -17 -3 -12 5 3 6 -2 16 -11 22 -16 10 -16 11 2 4 39 -14 75 -16 75 -5
0 6 -7 8 -17 4 -10 -4 -14 -2 -10 4 5 7 0 9 -13 6 -12 -3 -20 0 -20 6 0 7 4
10 9 6 5 -3 13 0 17 6 3 6 0 15 -7 20 -8 5 -17 3 -21 -4 -6 -9 -8 -8 -8 2 0 9
-7 11 -21 8 -16 -4 -18 -3 -9 8 9 10 3 16 -27 26 -21 7 -44 14 -51 15 -22 4
-24 11 -8 27 9 9 14 22 11 30 -4 8 4 18 17 25 21 11 21 11 -7 6 -23 -4 -26 -3
-15 5 8 6 11 11 5 11 -5 0 1 7 15 15 l25 13 -27 11 c-33 12 -46 31 -16 23 14
-3 19 -2 14 6 -4 7 -14 12 -23 12 -9 0 -14 3 -10 6 3 4 -1 13 -9 21 -8 8 -11
19 -8 25 4 7 2 8 -5 4 -6 -4 -9 -12 -6 -17 9 -14 -22 -11 -37 4 -7 8 -20 13
-29 12 -9 -2 -16 3 -16 11 0 10 4 11 14 3 7 -6 13 -8 13 -4 0 5 9 0 19 -9 22
-20 38 -6 22 21 -8 13 -10 14 -11 4 0 -11 -4 -10 -16 5 -8 10 -13 13 -9 7 3
-7 1 -13 -5 -13 -6 0 -13 6 -16 14 -3 8 -13 12 -22 10 -15 -5 -15 -4 1 9 16
13 16 15 2 21 -9 3 -13 2 -10 -4 3 -6 -1 -10 -10 -10 -10 0 -13 5 -9 13 5 7 0
6 -11 -3 -11 -9 -16 -10 -11 -2 4 7 0 15 -11 19 -10 4 -22 12 -28 19 -16 19
-131 53 -144 43 -6 -5 -8 -6 -6 -2 7 9 -106 51 -122 45 -6 -2 -14 -9 -16 -15
-2 -7 -3 -4 -2 5 3 16 -36 33 -61 27 -5 -1 -17 1 -27 6 -11 4 -23 3 -30 -4 -6
-6 -16 -11 -21 -11 -6 0 -5 4 3 9 10 6 -3 13 -42 21 -31 7 -54 17 -51 21 3 5
-2 6 -10 3 -9 -3 -16 -1 -16 6 0 6 -4 8 -10 5 -5 -3 -10 1 -10 9 0 10 -9 16
-22 17 -22 0 -22 1 -3 9 16 7 13 9 -15 8 -37 0 -67 5 -73 13 -2 2 -7 22 -10
44 -4 24 -3 34 2 26 7 -11 11 -10 21 5 9 15 10 16 6 2 -7 -22 20 -13 30 10 15
35 12 42 -14 42 -21 0 -24 2 -12 10 8 5 10 10 4 10 -6 0 -17 -6 -23 -14 -7 -8
-20 -14 -30 -13 -22 1 -23 28 -2 34 21 5 44 52 25 49 -7 -1 -17 -5 -20 -9 -4
-4 -18 -7 -31 -7 -17 0 -28 -9 -38 -32 -8 -18 -14 -27 -15 -20 0 6 -9 12 -21
12 -13 0 -18 -4 -13 -12 6 -9 3 -9 -9 1 -22 18 -4 55 23 48 11 -3 24 1 30 8 6
7 19 12 28 10 9 -1 26 2 37 8 11 6 26 10 33 9 6 -2 12 2 12 7 0 6 -11 10 -24
9 -14 -1 -23 -6 -20 -10 2 -4 -5 -6 -16 -5 -11 1 -20 6 -20 12 0 5 -5 2 -11
-8 -6 -9 -14 -15 -19 -12 -5 3 -11 1 -15 -5 -3 -5 -13 -10 -22 -10 -12 0 -13
3 -4 14 7 8 8 17 3 20 -5 3 -19 -8 -31 -24 -12 -17 -18 -30 -14 -30 4 0 8 -11
8 -25 0 -22 -13 -37 -16 -17 -7 44 -7 68 1 77 13 15 7 70 -7 70 -6 0 -15 4
-20 8 -4 5 -2 7 6 5 7 -1 15 2 17 7 5 13 -52 39 -66 30 -5 -3 -10 1 -10 9 0 9
-4 16 -10 16 -6 0 -6 -9 0 -26 13 -33 14 -32 -15 -30 -27 1 -32 15 -13 34 6 6
10 14 7 16 -2 2 -11 -3 -19 -12z m68 -47 c-12 -14 -30 -25 -40 -25 -11 0 -16
-4 -13 -10 3 -6 -1 -7 -10 -4 -11 5 -18 0 -22 -15 -6 -22 -37 -29 -49 -9 -4 6
-3 8 3 5 6 -4 21 4 34 17 13 13 35 26 49 27 14 2 31 12 38 22 7 9 17 17 23 17
5 0 -1 -11 -13 -25z m-114 -104 c-2 -3 -12 3 -22 13 -16 17 -16 18 5 5 12 -7
20 -15 17 -18z m321 -21 c-3 -5 -12 -7 -20 -3 -21 7 -19 13 6 13 11 0 18 -4
14 -10z m-328 -18 c-6 -8 -13 -10 -15 -4 -1 5 -13 8 -25 5 -18 -4 -19 -3 -7 6
8 6 25 10 37 9 18 -2 20 -5 10 -16z m310 -10 c0 -10 -10 -26 -20 -37 -19 -20
-19 -20 -7 5 8 14 13 26 12 28 -6 7 -1 22 7 22 6 0 9 -8 8 -18z m-423 -32
c-10 -4 -21 -6 -24 -3 -8 7 24 22 34 16 5 -4 1 -10 -10 -13z m-103 -83 c-10
-9 -11 -8 -5 6 3 10 9 15 12 12 3 -3 0 -11 -7 -18z m1068 -193 c2 -2 -6 -2
-18 -1 -11 1 -21 5 -21 10 0 4 -5 5 -12 1 -7 -4 -8 -3 -4 4 6 11 35 3 55 -14z
m141 -45 c0 -6 -4 -7 -10 -4 -5 3 -10 11 -10 16 0 6 5 7 10 4 6 -3 10 -11 10
-16z m54 -15 c8 -20 -8 -17 -28 5 -17 19 -17 19 2 14 12 -3 23 -11 26 -19z
m31 -174 c3 -5 1 -10 -4 -10 -6 0 -11 5 -11 10 0 6 2 10 4 10 3 0 8 -4 11 -10z
m95 -24 c0 2 18 -5 40 -16 22 -11 40 -23 40 -26 0 -8 -44 8 -51 19 -4 5 -22
11 -40 12 -19 2 -35 4 -36 5 -2 1 -8 3 -15 4 -6 0 -13 7 -15 13 -4 10 6 9 36
-2 23 -8 41 -12 41 -9z m88 -91 c-3 -3 -9 2 -12 12 -6 14 -5 15 5 6 7 -7 10
-15 7 -18z m-1183 -35 c3 -5 -1 -10 -10 -10 -9 0 -13 5 -10 10 3 6 8 10 10 10
2 0 7 -4 10 -10z m19 -39 c3 -5 -1 -14 -8 -20 -12 -10 -14 -9 -11 6 2 10 4 19
4 21 2 5 10 2 15 -7z m1211 -1 c4 -6 11 -8 16 -5 5 4 9 1 9 -5 0 -7 -8 -9 -22
-5 -31 10 -47 25 -26 25 9 0 20 -5 23 -10z m-1221 -55 c-4 -8 -7 -15 -9 -15
-2 0 -5 7 -9 15 -3 9 0 15 9 15 9 0 12 -6 9 -15z m1286 -73 c0 -5 -7 -9 -15
-9 -8 0 -15 4 -15 9 0 4 7 8 15 8 8 0 15 -4 15 -8z m55 -212 c3 -5 -4 -6 -15
-3 -11 3 -22 9 -25 13 -3 5 4 6 15 3 11 -3 22 -9 25 -13z m60 -81 c6 -4 22 -9
38 -13 28 -7 35 -20 15 -32 -7 -5 -8 -3 -3 6 6 10 4 12 -8 7 -10 -3 -17 -2
-17 3 0 6 -7 10 -15 10 -8 0 -15 6 -15 13 0 8 -4 7 -10 -3 -6 -9 -10 -10 -10
-3 0 6 -8 14 -17 16 -10 3 -7 4 7 3 14 -1 30 -4 35 -7z m-35 -28 c0 -5 -9 -7
-20 -4 -11 3 -20 7 -20 9 0 2 9 4 20 4 11 0 20 -4 20 -9z m133 -86 c-3 -9 -8
-14 -10 -11 -3 3 -2 9 2 15 9 16 15 13 8 -4z m-1348 -25 c3 -6 -1 -7 -9 -4
-18 7 -21 14 -7 14 6 0 13 -4 16 -10z m110 -2 c5 4 5 2 2 -5 -4 -6 -1 -14 5
-17 7 -3 2 -3 -12 0 -25 7 -25 7 -6 -15 15 -17 22 -19 29 -9 7 10 8 9 4 -3 -3
-8 3 -21 14 -27 15 -10 17 -9 13 6 -5 14 -3 14 13 -3 10 -11 26 -20 36 -20 9
0 17 -4 17 -10 0 -5 -6 -10 -12 -9 -22 1 -92 34 -100 47 -4 7 -12 12 -18 12
-5 0 -10 4 -9 9 0 5 -5 13 -13 17 -11 7 -11 9 1 9 8 0 11 6 7 16 -5 13 -4 14
7 6 8 -7 18 -8 22 -4z m25 -114 c0 -2 -9 0 -20 6 -11 6 -20 13 -20 16 0 2 9 0
20 -6 11 -6 20 -13 20 -16z m124 -20 c3 -8 2 -12 -4 -9 -6 3 -10 10 -10 16 0
14 7 11 14 -7z m-44 -4 c0 -5 -7 -7 -15 -4 -8 4 -15 8 -15 10 0 2 7 4 15 4 8
0 15 -4 15 -10z m86 -93 c8 3 14 1 14 -5 0 -9 -20 -9 -40 -2 -3 1 -9 2 -13 1
-5 -1 -5 4 -2 10 5 7 11 7 17 1 6 -6 17 -8 24 -5z m-13 -32 c37 -4 38 -5 32
-15 -3 -5 -1 -10 5 -10 7 0 9 -7 6 -16 -5 -13 -4 -14 7 -6 16 13 28 6 21 -12
-7 -18 23 -39 43 -32 15 6 15 5 -1 -13 -19 -21 -51 -17 -42 5 3 7 0 16 -6 20
-6 4 -8 3 -4 -4 3 -6 2 -14 -4 -17 -6 -4 -9 -1 -8 7 2 7 -4 13 -12 13 -8 0
-21 4 -29 9 -8 5 -6 -3 5 -20 12 -17 14 -25 5 -20 -8 5 -16 4 -21 -5 -5 -7
-16 -14 -24 -15 -15 -2 -20 10 -19 43 1 7 -4 10 -9 7 -6 -4 -8 -1 -6 7 3 8 2
21 -2 29 -12 23 6 61 25 53 9 -3 26 -7 38 -8z m172 -65 c3 -5 1 -10 -4 -10 -6
0 -11 5 -11 10 0 6 2 10 4 10 3 0 8 -4 11 -10z m45 -5 c0 4 6 2 13 -4 8 -6 17
-8 20 -4 4 3 7 1 7 -6 0 -8 -7 -10 -22 -5 -13 4 -29 7 -35 7 -7 0 -13 7 -13
15 0 12 3 12 15 2 8 -7 15 -9 15 -5z m-34 -50 c12 -8 24 -11 28 -8 3 3 6 1 6
-5 0 -6 6 -9 14 -6 9 3 23 -12 40 -42 29 -53 31 -58 14 -47 -7 4 -17 8 -23 9
-5 0 -16 2 -22 2 -7 1 -13 7 -13 13 0 5 5 7 12 3 7 -4 8 -3 4 4 -5 9 -16 8
-42 -3 -30 -12 -34 -12 -34 1 0 8 4 13 9 9 5 -3 12 -1 15 4 8 12 -23 8 -32 -5
-10 -13 -59 -11 -72 2 -14 14 -3 57 11 49 5 -4 9 -1 9 5 0 6 4 9 9 6 5 -4 17
-3 26 0 13 5 14 8 3 15 -10 7 -10 9 2 9 9 0 25 -7 36 -15z m211 -47 c-3 -8 -6
-5 -6 6 -1 11 2 17 5 13 3 -3 4 -12 1 -19z m-323 -14 c3 -8 2 -12 -4 -9 -5 3
-7 0 -4 -8 3 -8 18 -13 40 -12 20 0 43 -5 52 -13 10 -7 11 -11 5 -7 -7 3 -13
1 -13 -5 0 -6 -5 -8 -12 -3 -7 4 -22 8 -33 9 -33 1 -58 20 -60 43 -2 24 20 29
29 5z m390 7 c3 -5 23 -7 43 -5 27 2 34 1 23 -6 -12 -8 -9 -10 11 -10 18 0 25
-5 24 -17 0 -10 -5 -19 -10 -19 -6 -1 -9 2 -8 7 2 4 -6 13 -17 19 -14 7 -20 7
-20 0 0 -5 -3 -9 -7 -8 -5 0 -16 -2 -26 -7 -13 -6 -15 -10 -7 -15 7 -4 9 -13
5 -20 -5 -8 -12 -7 -24 4 -10 9 -21 13 -24 9 -4 -3 -7 -1 -7 5 0 5 5 12 12 14
7 3 5 7 -6 11 -9 4 -15 3 -12 -1 2 -4 1 -14 -4 -21 -6 -11 -11 -8 -20 9 -10
18 -10 21 2 14 11 -6 11 -5 -1 9 -11 14 -11 17 0 17 8 0 26 -6 41 -14 21 -11
30 -12 44 -2 15 11 15 13 0 13 -9 0 -16 -4 -16 -8 0 -4 -11 -2 -25 4 -14 7
-25 14 -25 17 0 10 49 10 54 1z m136 -42 c0 -5 -7 -9 -15 -9 -9 0 -12 6 -9 15
6 15 24 11 24 -6z m-595 -11 c-4 -23 -4 -23 12 -3 11 14 17 16 20 7 3 -6 9
-10 14 -6 7 4 3 -86 -4 -92 -1 -1 -13 3 -27 9 -23 9 -23 10 -5 14 26 6 43 22
19 19 -11 -2 -25 1 -31 7 -14 10 -18 49 -6 60 11 11 12 8 8 -15z m530 3 c-3
-5 -1 -12 5 -16 5 -3 10 -13 10 -22 0 -14 -3 -13 -22 3 -12 10 -18 13 -14 7 4
-7 3 -13 -3 -13 -11 0 -33 35 -26 41 8 9 56 8 50 0z m95 0 c0 -5 -5 -11 -10
-13 -6 -2 -7 -14 -1 -35 10 -34 6 -43 -18 -43 -10 0 -12 3 -5 8 6 4 11 15 11
24 0 14 -4 15 -20 6 -13 -6 -17 -6 -13 0 3 6 1 12 -6 14 -17 6 0 28 23 28 10
0 19 5 19 10 0 6 5 10 10 10 6 0 10 -4 10 -9z m78 -16 c12 -12 -10 -18 -27 -8
-11 7 -23 8 -32 2 -11 -7 -11 -9 4 -9 9 0 17 -4 17 -10 0 -5 8 -7 18 -3 14 5
13 2 -4 -17 -13 -13 -27 -19 -34 -15 -18 11 -28 48 -16 61 10 11 63 11 74 -1z
m89 -21 c-1 10 5 21 13 23 12 4 12 3 1 -5 -9 -7 -10 -12 -2 -16 6 -4 11 -12
11 -17 0 -12 -62 -1 -71 13 -3 5 -13 6 -22 2 -13 -4 -16 -2 -11 9 6 16 20 17
42 4 8 -6 12 -2 12 10 1 12 5 8 15 -12 8 -17 13 -22 12 -11z m-463 -10 c7 -19
2 -18 -19 6 -16 17 -16 20 -3 15 9 -4 19 -13 22 -21z m-209 -56 c-4 -18 -7
-39 -8 -45 -1 -18 -17 -16 -17 2 0 8 -9 15 -20 15 -11 0 -20 5 -20 10 0 16 38
50 56 50 13 0 15 -6 9 -32z m610 3 c15 -6 8 -8 -22 -8 -25 1 -38 4 -30 9 15 9
26 9 52 -1z m-205 -21 c0 -5 -5 -10 -11 -10 -5 0 -7 5 -4 10 3 6 8 10 11 10 2
0 4 -4 4 -10z m30 -14 c0 -3 -4 -8 -10 -11 -5 -3 -10 -1 -10 4 0 6 5 11 10 11
6 0 10 -2 10 -4z m-86 -21 c3 -9 0 -15 -9 -15 -9 0 -12 6 -9 15 4 8 7 15 9 15
2 0 5 -7 9 -15z m56 -10 c0 -8 -4 -17 -10 -20 -6 -3 -7 1 -4 9 3 9 1 16 -5 16
-6 0 -11 4 -11 10 0 5 7 7 15 4 8 -4 15 -12 15 -19z m80 -23 c3 -3 -8 -2 -25
2 -16 4 -34 12 -40 17 -5 5 6 4 25 -2 19 -7 37 -14 40 -17z m85 -1 c3 -5 1
-12 -5 -16 -5 -3 -10 0 -10 7 0 9 -3 9 -10 -2 -8 -13 -10 -12 -10 3 0 18 25
24 35 8z m44 -18 c13 -28 13 -28 -8 -9 -22 20 -27 36 -13 36 5 0 14 -12 21
-27z m34 14 c4 3 7 1 7 -6 0 -17 -32 -10 -38 9 -4 12 -3 13 10 3 8 -7 18 -10
21 -6z m-712 -33 c9 -11 5 -11 -22 -4 -17 5 -36 7 -40 4 -5 -3 -6 1 -3 9 6 17
48 11 65 -9z m749 14 c0 -9 3 -9 8 -3 6 9 26 12 35 6 1 -2 13 -5 26 -7 32 -6
37 -12 23 -26 -7 -7 -12 -8 -12 -2 0 13 -43 13 -52 0 -5 -7 -8 -4 -8 7 0 10
-4 16 -9 13 -5 -3 -14 1 -21 9 -9 10 -9 15 -1 15 6 0 11 -6 11 -12z m-692 -22
c7 -4 11 -14 8 -22 -3 -8 1 -17 9 -20 8 -4 13 -9 10 -14 -2 -4 7 -12 20 -18
17 -8 23 -16 18 -28 -5 -13 -2 -16 10 -11 11 4 20 -1 27 -13 11 -20 -3 -30
-14 -11 -4 5 -14 8 -24 6 -21 -3 -74 33 -67 45 3 5 12 7 20 4 8 -4 12 -10 9
-15 -6 -11 -1 -11 20 -3 12 5 9 11 -17 28 -17 12 -32 31 -32 41 0 11 -8 21
-18 23 -9 2 -17 7 -17 12 0 10 20 8 38 -4z m662 10 c0 -3 -4 -8 -10 -11 -5 -3
-10 -1 -10 4 0 6 5 11 10 11 6 0 10 -2 10 -4z m207 -19 c2 -3 0 -8 -6 -12 -6
-3 -11 -2 -11 3 0 5 -11 8 -25 7 -14 -2 -25 1 -25 5 0 9 58 6 67 -3z m-917
-14 c8 -1 23 -12 33 -24 13 -17 15 -25 6 -35 -9 -11 -15 -12 -26 -3 -11 10
-12 8 -7 -7 5 -14 0 -11 -19 9 -15 15 -24 34 -21 42 5 11 2 13 -12 8 -16 -6
-17 -5 -4 9 8 9 20 13 25 10 6 -4 17 -7 25 -9z m607 -5 c-3 -8 -6 -5 -6 6 -1
11 2 17 5 13 3 -3 4 -12 1 -19z m-461 -3 c4 -8 10 -15 16 -15 5 0 6 4 3 10 -3
5 0 7 9 4 8 -3 12 -12 10 -19 -3 -7 0 -16 7 -21 8 -4 10 -3 5 4 -4 7 -2 12 3
12 6 0 11 -8 11 -17 0 -15 2 -16 10 -3 5 8 10 12 10 8 0 -3 3 -13 6 -21 10
-26 -66 3 -85 33 -19 30 -47 40 -37 13 6 -14 4 -15 -5 -6 -6 6 -8 16 -5 22 10
16 36 13 42 -4z m804 11 c0 -3 -4 -8 -10 -11 -5 -3 -10 -1 -10 4 0 6 5 11 10
11 6 0 10 -2 10 -4z m67 -22 c0 -9 -8 -9 -29 -2 -15 6 -28 11 -28 13 0 1 13 2
28 2 16 -1 29 -7 29 -13z m40 -1 c-9 -2 -15 -9 -12 -14 4 -5 1 -9 -4 -9 -12 0
-14 13 -4 23 3 4 13 6 22 6 13 -1 12 -2 -2 -6z m45 -22 c47 -19 63 -24 71 -23
4 1 7 -3 7 -9 0 -7 -7 -8 -17 -4 -10 3 -37 11 -60 18 -24 6 -43 15 -43 19 0
11 14 10 42 -1z m-102 -16 c0 -8 -2 -15 -4 -15 -2 0 -6 7 -10 15 -3 8 -1 15 4
15 6 0 10 -7 10 -15z m21 -22 c-8 -15 -10 -15 -11 -2 0 17 10 32 18 25 2 -3
-1 -13 -7 -23z m-844 -55 c-3 -7 -5 -2 -5 12 0 14 2 19 5 13 2 -7 2 -19 0 -25z
m30 -10 c-3 -8 -6 -5 -6 6 -1 11 2 17 5 13 3 -3 4 -12 1 -19z m33 -3 c0 -8 -2
-15 -4 -15 -2 0 -6 7 -10 15 -3 8 -1 15 4 15 6 0 10 -7 10 -15z m204 7 c3 -5
-1 -9 -9 -9 -8 0 -15 4 -15 9 0 4 4 8 9 8 6 0 12 -4 15 -8z m56 -17 c0 4 7 2
15 -5 17 -14 20 -30 5 -30 -5 0 -9 5 -7 12 1 7 -3 12 -10 13 -6 0 -15 3 -19 7
-4 4 -14 2 -23 -5 -14 -11 -14 -10 -2 6 10 13 17 15 27 6 8 -6 14 -8 14 -4z
m67 -11 c-3 -3 -12 -4 -19 -1 -8 3 -5 6 6 6 11 1 17 -2 13 -5z m20 -12 c0 -10
-7 -19 -14 -19 -16 0 -16 4 0 22 16 18 16 18 14 -3z m125 -32 c21 -6 42 -9 48
-5 5 3 10 2 10 -4 0 -5 6 -12 13 -14 12 -4 -38 2 -58 7 -5 2 -27 6 -47 10 -22
5 -35 12 -31 19 4 6 -3 8 -19 4 -17 -5 -25 -2 -25 7 0 8 9 11 25 8 19 -4 23
-2 18 9 -4 8 1 4 11 -7 10 -12 35 -27 55 -34z m-402 -12 c0 -3 3 -15 6 -25 6
-17 6 -17 -7 0 -8 9 -28 21 -44 26 -30 9 -30 9 7 8 21 -1 38 -5 38 -9z m537
-35 c-8 -7 -37 9 -31 19 3 5 12 4 20 -3 8 -6 13 -14 11 -16z m-60 -29 c-3 -3
-12 -4 -19 -1 -8 3 -5 6 6 6 11 1 17 -2 13 -5z m58 -14 c3 -5 1 -10 -4 -10 -6
0 -11 5 -11 10 0 6 2 10 4 10 3 0 8 -4 11 -10z m46 -18 c-7 -2 -18 1 -23 6 -8
8 -4 9 13 5 13 -4 18 -8 10 -11z m-321 -6 c0 -3 -4 -8 -10 -11 -5 -3 -10 -1
-10 4 0 6 5 11 10 11 6 0 10 -2 10 -4z m360 0 c0 -3 -4 -8 -10 -11 -5 -3 -10
-1 -10 4 0 6 5 11 10 11 6 0 10 -2 10 -4z m-205 -24 c-3 -3 -11 0 -18 7 -9 10
-8 11 6 5 10 -3 15 -9 12 -12z m42 -24 c-3 -8 -6 -5 -6 6 -1 11 2 17 5 13 3
-3 4 -12 1 -19z m27 -3 c-4 -8 -8 -15 -10 -15 -2 0 -4 7 -4 15 0 8 4 15 10 15
5 0 7 -7 4 -15z"/>
<path d="M9435 14340 c-4 -6 -11 -8 -16 -5 -5 4 -9 1 -9 -4 0 -6 2 -11 4 -11
2 0 11 -3 20 -6 11 -4 14 0 13 15 -1 24 -3 25 -12 11z"/>
<path d="M8550 15540 c0 -5 5 -10 11 -10 5 0 7 5 4 10 -3 6 -8 10 -11 10 -2 0
-4 -4 -4 -10z"/>
<path d="M8725 15411 c-3 -5 -2 -12 3 -15 5 -3 9 1 9 9 0 17 -3 19 -12 6z"/>
<path d="M10067 15389 c4 -13 8 -18 11 -10 2 7 -1 18 -6 23 -8 8 -9 4 -5 -13z"/>
<path d="M8724 14958 l-19 -23 23 19 c12 11 22 21 22 23 0 8 -8 2 -26 -19z"/>
<path d="M8830 14949 c0 -5 5 -7 10 -4 6 3 10 8 10 11 0 2 -4 4 -10 4 -5 0
-10 -5 -10 -11z"/>
<path d="M8855 14920 c-4 -6 -9 -8 -13 -6 -10 6 -37 -16 -40 -34 -1 -8 6 -4
16 9 11 13 21 19 23 13 2 -6 13 -3 28 9 17 14 19 19 8 19 -9 0 -19 -5 -22 -10z"/>
<path d="M8715 14860 c-3 -11 -3 -24 0 -30 3 -5 -1 -10 -10 -10 -10 0 -13 -4
-8 -12 4 -7 8 -20 8 -28 4 -44 6 -50 20 -50 8 0 15 5 15 11 0 5 -4 8 -8 5 -5
-3 -8 26 -6 64 2 73 0 84 -11 50z"/>
<path d="M8850 14870 c0 -5 5 -10 10 -10 6 0 10 5 10 10 0 6 -4 10 -10 10 -5
0 -10 -4 -10 -10z"/>
<path d="M8796 14829 c6 -8 10 -22 9 -31 -2 -11 2 -15 12 -11 11 4 12 8 3 13
-9 5 -9 9 -1 11 6 2 1 10 -11 18 -20 12 -21 12 -12 0z"/>
<path d="M8810 14770 c-12 -8 -10 -10 8 -10 13 0 20 4 17 10 -7 12 -6 12 -25
0z"/>
<path d="M10387 14767 c-3 -7 -1 -20 3 -28 7 -11 10 -10 16 4 4 10 2 23 -3 28
-7 7 -12 6 -16 -4z"/>
<path d="M10417 14745 c-4 -8 -3 -16 1 -19 4 -3 9 4 9 15 2 23 -3 25 -10 4z"/>
<path d="M8821 14734 c6 -7 16 -11 21 -8 11 7 3 17 -18 20 -12 2 -13 -1 -3
-12z"/>
<path d="M8758 14728 c8 -9 11 -22 8 -27 -4 -5 -3 -12 2 -15 16 -10 10 33 -6
46 -15 12 -16 11 -4 -4z"/>
<path d="M8875 14650 c3 -5 15 -10 26 -10 11 0 18 -4 14 -9 -6 -11 31 -25 44
-17 5 4 12 1 14 -4 3 -6 4 -5 3 2 -2 7 -12 13 -23 12 -15 0 -19 5 -16 20 2 12
1 16 -3 9 -4 -8 -13 -9 -30 -2 -32 12 -37 11 -29 -1z"/>
<path d="M9016 14628 c-5 -19 -8 -21 -16 -8 -8 12 -10 9 -10 -14 l0 -29 25 29
c26 30 31 44 16 44 -5 0 -11 -10 -15 -22z"/>
<path d="M8857 14619 c7 -7 15 -10 18 -7 3 3 -2 9 -12 12 -14 6 -15 5 -6 -5z"/>
<path d="M9036 14595 c4 -8 8 -15 10 -15 2 0 4 7 4 15 0 8 -4 15 -10 15 -5 0
-7 -7 -4 -15z"/>
<path d="M8989 14568 c-6 -21 -5 -38 2 -38 5 0 9 9 9 20 0 16 -7 28 -11 18z"/>
<path d="M9116 14501 c-10 -11 -13 -22 -8 -25 13 -8 42 3 42 16 0 5 -5 6 -12
2 -8 -5 -9 -2 -5 9 8 22 4 21 -17 -2z"/>
<path d="M9010 14476 c0 -4 8 -21 17 -39 9 -18 16 -36 15 -40 -1 -5 3 -5 9 -1
7 4 9 0 5 -12 -5 -16 0 -19 29 -19 30 -1 33 1 20 15 -18 20 -17 64 2 48 7 -6
13 -7 13 -2 0 19 -16 31 -45 36 -16 3 -38 9 -47 13 -10 4 -18 4 -18 1z m70
-37 c0 -4 -6 -12 -14 -18 -10 -9 -16 -9 -21 -1 -4 6 -4 14 -1 17 3 3 -2 12
-12 19 -14 11 -12 11 16 2 17 -7 32 -15 32 -19z"/>
<path d="M9064 14349 c-5 -8 -3 -9 6 -4 10 6 12 4 7 -8 -4 -10 -2 -16 5 -14 7
1 13 -4 14 -10 1 -7 2 -16 3 -20 0 -4 7 -1 13 5 10 10 10 15 -2 22 -8 5 -15
15 -15 21 0 17 -22 23 -31 8z"/>
<path d="M10160 14220 c0 -5 5 -10 11 -10 5 0 7 5 4 10 -3 6 -8 10 -11 10 -2
0 -4 -4 -4 -10z"/>
<path d="M9502 14169 c3 -27 38 -34 46 -10 3 8 0 11 -6 7 -6 -3 -18 1 -27 11
-16 15 -17 15 -13 -8z"/>
<path d="M10336 14175 c-9 -9 -13 -22 -9 -28 3 -7 -3 -3 -15 7 -12 11 -22 16
-22 11 0 -4 -6 -3 -12 2 -17 12 -39 11 -35 -2 1 -5 8 -8 16 -7 9 3 12 -2 7
-14 -6 -16 -5 -16 15 2 22 19 22 19 17 -3 -5 -19 -3 -21 17 -13 13 5 26 6 29
2 4 -3 12 -7 19 -8 7 -1 26 -5 42 -8 28 -6 28 -6 6 4 -14 6 -32 12 -40 13 -24
4 -42 17 -36 27 3 5 16 5 31 0 37 -14 75 -20 69 -10 -3 5 -20 12 -38 15 -17 4
-35 12 -38 17 -3 5 -13 2 -23 -7z"/>
<path d="M10581 14180 c3 -28 -1 -41 -10 -36 -5 4 -8 -1 -7 -11 2 -9 10 -17
19 -19 11 -1 14 2 10 9 -4 8 -1 7 9 -1 13 -10 16 -9 21 8 3 11 1 18 -4 14 -5
-3 -9 -1 -9 3 0 5 -7 18 -15 29 -11 14 -15 15 -14 4z"/>
<path d="M10097 14153 c-12 -12 -7 -23 11 -23 13 0 14 2 3 9 -11 7 -11 9 0 14
8 3 9 6 3 6 -6 1 -14 -2 -17 -6z"/>
<path d="M9615 14139 c4 -5 11 -7 16 -4 5 4 9 1 9 -5 0 -6 5 -8 11 -4 6 3 15
1 19 -6 5 -9 9 -8 13 2 3 8 0 15 -6 15 -7 0 -24 3 -40 6 -16 3 -25 2 -22 -4z"/>
<path d="M10525 14140 c-3 -6 1 -7 9 -4 18 7 21 14 7 14 -6 0 -13 -4 -16 -10z"/>
<path d="M9703 14133 c4 -3 3 -11 -3 -17 -6 -8 -3 -12 9 -12 12 0 17 6 13 18
-2 10 -9 18 -15 18 -6 0 -7 -3 -4 -7z"/>
<path d="M10230 14109 c0 -6 5 -7 10 -4 6 3 10 2 10 -3 0 -5 6 -9 14 -9 8 0
12 5 10 12 -6 14 -44 17 -44 4z"/>
<path d="M10290 14100 c0 -6 7 -10 15 -10 8 0 15 2 15 4 0 2 -7 6 -15 10 -8 3
-15 1 -15 -4z"/>
<path d="M10333 14086 c5 -16 27 -19 27 -3 0 7 -7 14 -15 14 -9 0 -14 -5 -12
-11z"/>
<path d="M10686 14088 c3 -4 9 -8 15 -8 5 0 9 4 9 8 0 5 -7 9 -15 9 -8 0 -12
-4 -9 -9z"/>
<path d="M9430 13826 c0 -2 11 -6 25 -8 13 -3 22 -1 19 3 -5 9 -44 13 -44 5z"/>
<path d="M9490 13813 c0 -1 8 -7 18 -12 13 -7 19 -6 19 2 0 7 -9 13 -19 13
-10 0 -18 -1 -18 -3z"/>
<path d="M10677 13769 c7 -7 15 -10 18 -7 3 3 -2 9 -12 12 -14 6 -15 5 -6 -5z"/>
<path d="M9763 13718 c1 -10 2 -18 4 -18 1 0 7 8 12 18 7 14 6 19 -4 19 -7 0
-13 -9 -12 -19z"/>
<path d="M8883 13175 c-6 -14 -8 -23 -4 -20 12 7 9 -29 -3 -37 -8 -5 -7 -8 1
-8 7 0 12 -11 11 -24 -2 -19 -5 -22 -19 -13 -17 11 -14 46 5 59 7 5 7 8 -2 8
-7 0 -16 -9 -20 -19 -4 -11 -11 -21 -17 -23 -5 -2 -10 -13 -10 -25 1 -13 -5
-23 -13 -23 -7 0 -10 -4 -7 -10 3 -6 -1 -7 -9 -4 -9 3 -16 1 -16 -5 0 -15 -27
-14 -36 1 -4 6 -3 8 3 5 6 -4 16 0 23 8 11 13 10 14 -6 9 -16 -5 -16 -4 -4 5
8 6 23 8 33 5 25 -8 21 5 -5 16 -16 6 -18 9 -6 9 10 1 15 8 13 19 -2 9 -4 20
-4 25 -1 12 -33 8 -45 -6 -6 -7 -10 -10 -9 -8 1 2 -2 12 -8 22 -9 19 -10 19
-31 -1 -12 -10 -25 -17 -29 -14 -13 8 -29 -31 -23 -60 6 -32 -33 -91 -51 -76
-15 12 -57 1 -48 -14 4 -6 -1 -5 -10 3 -13 11 -17 11 -17 1 0 -8 -3 -11 -6 -7
-4 3 -12 0 -19 -6 -8 -9 -15 -69 -19 -182 -4 -94 -9 -195 -11 -225 -10 -124
-16 -221 -20 -320 -3 -58 -12 -145 -20 -195 -23 -139 -54 -405 -70 -595 -8
-98 -14 -145 -26 -200 -16 -70 -37 -208 -44 -285 -3 -38 -10 -92 -15 -120 -5
-27 -11 -81 -15 -120 -3 -38 -7 -86 -9 -105 -3 -19 -6 -53 -7 -75 -1 -22 -4
-44 -7 -48 -2 -5 -6 -39 -8 -75 -2 -37 -8 -94 -14 -127 -5 -33 -12 -78 -14
-100 -3 -22 -8 -51 -11 -65 -11 -54 -24 -138 -30 -200 -8 -81 -16 -149 -21
-175 -2 -11 -8 -65 -14 -120 -5 -55 -12 -111 -15 -125 -7 -32 -13 -91 -25
-215 -5 -55 -18 -200 -29 -322 -12 -122 -20 -258 -19 -301 1 -43 -1 -83 -5
-89 -3 -5 -9 -57 -13 -114 -7 -120 -7 -125 0 -161 2 -16 1 -28 -4 -28 -9 0 -8
-19 3 -36 3 -6 3 -14 0 -18 -4 -3 -8 -14 -9 -24 -2 -22 -13 -91 -19 -122 -10
-49 -14 -160 -5 -165 10 -6 8 -24 -4 -44 -5 -7 -4 -16 1 -20 6 -3 9 -15 7 -26
-2 -11 -6 -38 -9 -60 -3 -22 -8 -58 -11 -80 -3 -22 -8 -116 -10 -208 -2 -93
-6 -173 -10 -178 -3 -5 1 -9 8 -9 9 0 9 -3 -2 -10 -8 -5 -10 -10 -5 -10 7 0 9
-21 7 -52 -6 -93 -14 -289 -13 -363 0 -54 -1 -265 -2 -300 -4 -363 2 -813 12
-830 8 -14 13 -120 9 -185 -1 -20 2 -42 7 -49 5 -10 4 -12 -3 -7 -12 7 -12
-28 0 -40 4 -3 4 -17 2 -30 -2 -13 0 -24 5 -24 5 0 12 12 14 28 2 16 5 8 6
-21 1 -36 -2 -46 -11 -41 -10 6 -10 4 0 -8 11 -14 10 -17 -5 -21 -16 -4 -15
-5 2 -6 18 -1 20 -8 20 -58 0 -32 2 -78 5 -103 4 -27 1 -53 -7 -65 -14 -23
-25 -78 -15 -71 4 2 15 -7 25 -20 10 -13 14 -24 9 -24 -6 0 -12 7 -16 15 -3 8
-9 15 -13 15 -11 0 -14 -211 -3 -229 4 -8 4 -25 0 -36 -5 -12 -4 -28 1 -36 9
-15 10 -12 13 30 0 11 5 23 10 28 5 5 6 3 2 -4 -4 -8 -2 -13 6 -13 8 0 9 -3 3
-8 -5 -4 -10 -41 -10 -82 0 -41 5 -78 10 -82 6 -5 5 -8 -2 -8 -9 0 -10 -7 -4
-22 4 -13 6 -36 4 -53 -1 -16 -3 -41 -4 -55 -1 -14 -6 -31 -11 -37 -7 -9 -6
-13 3 -13 11 0 11 -2 -1 -10 -10 -6 -11 -10 -2 -10 6 0 12 -12 12 -26 0 -14 4
-23 8 -20 5 3 9 -1 9 -9 0 -20 -21 -13 -29 10 -4 12 -6 0 -5 -29 1 -38 5 -50
21 -56 21 -9 21 -9 1 -10 -11 -1 -14 -4 -7 -7 6 -2 12 -9 12 -14 0 -6 -4 -7
-10 -4 -10 6 -14 -37 -5 -47 3 -3 8 -72 10 -154 2 -82 6 -165 9 -184 3 -19 7
-71 10 -116 3 -44 9 -91 14 -105 6 -15 6 -31 1 -41 -6 -10 -6 -19 0 -22 5 -3
7 -25 5 -48 -3 -26 0 -44 8 -49 7 -5 11 -27 9 -59 -1 -29 1 -50 6 -47 4 3 8
-36 8 -86 0 -51 4 -101 9 -112 4 -11 9 -45 11 -75 2 -30 7 -80 10 -110 4 -30
7 -61 7 -67 1 -7 6 -13 11 -13 6 0 7 -3 4 -7 -4 -3 -2 -12 5 -20 9 -11 7 -12
-7 -7 -12 5 -16 4 -12 -3 4 -6 10 -56 13 -110 7 -122 11 -168 13 -168 1 0 4
-20 6 -45 3 -25 7 -65 11 -90 3 -25 5 -60 5 -78 -1 -21 3 -31 11 -30 6 2 13
-6 15 -17 3 -19 3 -19 -5 -1 -8 19 -20 12 -17 -9 1 -5 5 -34 10 -63 4 -28 13
-52 19 -52 6 0 5 -4 -3 -9 -8 -5 -9 -11 -3 -15 5 -3 8 -22 6 -43 -2 -20 2 -44
9 -52 10 -12 9 -13 -2 -6 -10 6 -12 4 -6 -6 5 -7 9 -25 10 -39 1 -14 5 -32 10
-39 6 -10 4 -12 -5 -6 -10 6 -11 4 -4 -6 5 -8 9 -16 10 -19 0 -3 4 -26 8 -52
5 -31 12 -46 20 -42 6 3 4 0 -4 -8 -19 -17 -24 -38 -8 -38 6 0 9 -3 5 -6 -3
-3 -2 -17 3 -30 5 -13 5 -26 1 -28 -12 -8 -8 -67 6 -91 6 -12 14 -42 17 -68 5
-39 3 -45 -10 -40 -13 5 -15 1 -9 -18 11 -37 35 -79 43 -79 5 0 13 5 20 12 9
9 15 9 24 0 7 -7 19 -12 28 -12 12 0 12 2 2 9 -11 7 -11 9 0 14 10 3 14 -3 14
-19 0 -28 -4 -29 -35 -8 -21 15 -24 15 -39 -1 -10 -10 -11 -15 -4 -11 7 4 15
1 18 -8 4 -11 11 -13 21 -7 20 11 53 2 53 -13 0 -7 -6 -18 -12 -25 -11 -11
-10 -12 2 -6 12 6 13 5 3 -5 -9 -10 -9 -19 3 -41 8 -16 12 -29 9 -29 -3 0 4
-9 15 -20 11 -11 20 -24 20 -29 0 -5 11 -11 25 -13 21 -5 25 -1 26 21 1 14 1
31 -1 36 -1 6 4 4 11 -2 18 -18 28 -16 24 5 -2 10 1 25 6 33 7 12 9 12 10 -1
1 -8 1 -21 0 -28 -1 -8 4 -21 11 -30 11 -13 11 -15 -2 -8 -9 4 -8 2 2 -7 10
-8 15 -17 11 -20 -3 -4 6 -7 20 -7 18 0 27 5 27 16 0 12 4 14 13 6 7 -5 21 -6
32 -1 11 4 14 8 8 8 -7 1 -13 5 -13 11 0 16 29 -1 35 -21 8 -25 21 -24 28 2 4
13 1 19 -6 16 -7 -3 -12 5 -12 19 0 27 5 30 24 12 7 -7 2 6 -10 29 -12 23 -27
41 -33 40 -13 -3 -15 24 -3 40 5 7 6 16 3 22 -3 5 0 11 7 14 10 4 12 -3 9 -23
-3 -20 3 -36 18 -52 13 -13 19 -17 15 -9 -6 11 -4 13 8 8 19 -7 32 8 16 19 -8
5 -9 3 -4 -6 5 -9 4 -11 -4 -6 -6 4 -9 12 -5 17 3 5 9 7 14 4 5 -3 11 -1 15 5
3 5 -3 10 -15 10 -20 0 -20 1 -6 22 18 25 21 58 6 58 -5 0 -10 9 -10 21 0 11
5 17 10 14 6 -4 8 -11 5 -16 -4 -5 0 -12 8 -15 9 -3 13 -16 11 -35 -3 -20 1
-32 12 -36 13 -5 13 -7 2 -14 -9 -6 -6 -8 8 -7 16 2 20 7 16 22 -3 10 -1 17 4
13 5 -3 10 3 10 14 0 10 -7 19 -16 19 -12 0 -13 2 -1 9 11 7 10 10 -5 14 -18
5 -18 5 0 6 16 1 18 7 12 40 -5 31 -2 40 11 45 14 6 14 9 -6 22 -17 13 -19 19
-10 30 6 7 16 11 22 7 6 -4 7 -1 3 6 -5 7 -15 10 -23 7 -9 -4 -11 -2 -6 7 11
18 12 36 2 43 -5 3 -7 10 -4 15 4 5 0 9 -7 9 -10 0 -9 3 2 9 8 6 18 7 22 5 4
-3 8 2 8 10 0 18 16 21 25 6 4 -7 12 -7 23 -1 12 7 22 5 34 -6 16 -15 18 -15
18 0 0 10 7 17 16 17 11 0 15 6 11 20 -6 22 17 28 29 8 5 -7 3 -8 -7 -3 -8 5
-7 0 4 -12 9 -11 14 -23 10 -26 -3 -4 -1 -7 6 -7 6 0 19 -15 27 -33 12 -28 14
-29 12 -7 -2 20 1 25 20 24 12 0 22 3 22 7 0 5 7 6 15 3 19 -8 19 -30 0 -38
-17 -6 -20 -26 -4 -26 5 0 7 5 3 11 -4 7 1 9 12 7 11 -2 18 -10 16 -16 -3 -16
4 -15 23 5 14 13 21 14 36 5 24 -15 26 -15 33 4 6 15 4 15 -11 3 -12 -10 -15
-11 -9 -1 11 19 15 62 5 56 -5 -3 -9 0 -9 5 0 6 -5 10 -11 9 -6 -2 -13 5 -14
15 -2 10 3 17 11 17 9 0 13 -4 10 -8 -3 -5 1 -9 8 -9 8 0 11 9 8 22 -2 13 2
26 9 30 9 6 10 3 6 -10 -6 -14 -3 -17 18 -13 19 4 23 2 15 -7 -8 -10 -2 -14
24 -17 19 -2 32 0 30 4 -3 4 -12 8 -21 8 -8 0 -13 6 -10 13 3 7 -4 19 -15 26
-14 9 -17 16 -10 23 13 13 35 0 25 -15 -4 -7 0 -6 10 2 9 7 17 20 17 27 0 16
54 46 65 36 5 -4 5 -1 1 6 -4 7 -12 10 -17 7 -5 -4 -17 1 -26 11 -16 16 -16
16 7 10 62 -18 63 -18 55 -6 -5 9 -4 11 4 6 9 -6 9 -11 0 -22 -10 -12 -10 -15
1 -12 8 2 15 -3 16 -9 1 -7 3 -16 4 -20 1 -5 2 -12 1 -16 -1 -5 3 -6 9 -2 5 3
10 19 10 35 0 16 5 32 12 36 8 5 9 -2 5 -25 -5 -24 -3 -31 6 -28 6 2 12 15 11
29 -1 13 4 25 11 25 7 0 10 -8 7 -19 -2 -11 1 -18 9 -18 11 0 11 -2 -1 -10
-13 -8 -12 -10 3 -10 10 0 16 -4 13 -8 -3 -4 0 -26 5 -48 5 -21 11 -44 12 -51
6 -27 14 -22 12 7 -1 16 2 30 8 30 6 0 3 6 -6 12 -11 9 -18 33 -21 78 -3 36
-5 68 -5 72 -1 4 -7 5 -15 2 -10 -4 -14 0 -12 13 2 11 11 17 22 16 11 -1 14 0
7 3 -6 3 -9 16 -7 30 3 18 -1 27 -18 35 l-23 10 23 -5 c18 -3 22 -1 18 10 -4
11 2 9 23 -5 31 -23 51 -27 51 -11 0 5 7 7 15 4 18 -7 14 -62 -6 -75 -11 -7
-11 -9 3 -9 18 0 42 -33 31 -43 -9 -10 71 14 84 25 9 7 10 15 2 30 -8 15 -8
19 0 14 7 -5 9 -1 5 8 -3 9 -10 16 -15 16 -4 0 -6 7 -3 15 4 8 1 15 -5 15 -5
0 -9 13 -8 29 1 16 5 27 9 25 16 -10 17 16 1 26 -17 11 -17 11 1 6 14 -5 17
-2 12 11 -6 14 -2 12 17 -5 21 -20 26 -21 36 -8 7 8 10 24 6 36 -4 11 -2 20 4
20 6 0 12 -10 12 -22 1 -17 2 -19 6 -6 4 15 6 16 18 4 8 -8 13 -23 10 -34 -3
-15 1 -19 15 -15 16 4 18 12 14 51 -3 30 0 48 8 54 10 6 9 8 -4 8 -9 0 -20 4
-23 10 -4 6 1 7 12 3 16 -6 16 -5 4 10 -9 11 -10 17 -2 17 12 0 11 21 -1 30
-4 3 -2 12 3 20 8 12 12 12 16 2 2 -7 11 -19 19 -26 8 -8 14 -19 14 -25 0 -18
20 -23 35 -7 18 18 19 23 3 29 -7 2 -2 2 10 0 13 -2 21 0 18 6 -3 5 0 12 6 14
8 4 7 6 -4 6 -9 1 -20 6 -24 13 -4 6 -3 8 3 5 6 -4 13 4 15 17 6 30 -19 24
-33 -8 -8 -20 -9 -20 -7 -1 1 11 -2 33 -7 48 -9 33 -1 45 19 28 8 -7 31 -13
50 -14 27 -2 35 -6 31 -17 -4 -8 -3 -11 1 -8 3 4 13 1 21 -7 8 -8 24 -15 36
-15 18 0 19 2 7 10 -11 7 -11 10 -2 10 7 0 10 5 7 10 -3 6 0 10 7 10 10 0 9 3
-2 10 -12 8 -12 10 2 15 14 5 15 10 5 20 -7 7 -16 10 -21 7 -5 -3 -7 2 -3 11
3 9 1 17 -5 19 -7 3 -9 12 -5 22 5 12 13 16 23 12 14 -5 15 -4 4 9 -11 13 -9
15 11 14 13 0 33 -5 44 -10 17 -8 16 -9 -6 -4 -26 5 -27 3 -25 -35 0 -22 4
-40 8 -40 4 0 5 -11 2 -25 -5 -27 7 -32 28 -12 17 18 16 136 -2 147 -10 6 -8
11 8 19 23 12 19 51 -5 51 -8 0 -11 -5 -7 -12 4 -7 3 -8 -4 -4 -17 10 -15 15
11 26 l22 9 -24 0 c-23 1 -24 2 -6 14 17 13 17 14 -4 29 -21 15 -22 16 -4 22
19 6 19 3 14 134 -1 22 -5 32 -13 29 -7 -2 -12 -10 -10 -18 7 -27 8 -139 2
-139 -7 0 -11 43 -14 132 0 27 -4 48 -8 48 -4 0 -4 7 -1 17 4 9 2 14 -3 10 -5
-3 -9 7 -8 21 1 15 -3 33 -9 39 -5 7 -6 13 -2 13 4 0 1 8 -6 17 -11 13 -11 15
-1 9 11 -6 13 1 10 34 -2 28 1 44 10 47 6 3 12 0 12 -7 0 -6 -5 -8 -12 -4 -10
6 -10 5 -1 -8 7 -8 10 -18 6 -21 -3 -4 -1 -7 6 -7 8 0 11 11 9 28 -2 21 -8 27
-25 25 -13 -2 -23 0 -23 2 0 3 10 10 23 15 22 9 22 9 -3 10 -19 0 -22 2 -10 9
8 6 18 7 22 5 4 -3 8 0 8 6 0 7 -7 10 -15 6 -11 -4 -15 1 -15 17 0 12 -3 32
-6 45 -5 16 -2 22 10 22 12 0 16 10 16 36 0 29 -3 35 -16 30 -15 -6 -15 -4 -3
11 7 10 9 15 5 11 -5 -4 -14 0 -21 9 -12 16 -40 9 -30 -8 4 -5 0 -9 -7 -9 -10
0 -9 -3 2 -9 8 -6 19 -7 25 -3 5 3 3 -3 -5 -13 -14 -17 -13 -18 15 -12 l30 6
-28 -12 -28 -11 7 -116 c4 -63 7 -127 7 -142 0 -15 6 -29 14 -33 11 -4 12 -9
5 -18 -6 -6 -9 -33 -9 -59 3 -64 -9 -51 -17 19 -7 62 -12 98 -15 98 -2 0 -4
27 -5 60 -4 83 -15 127 -29 118 -7 -4 -6 1 2 11 13 15 15 48 8 144 0 12 -3 22
-6 22 -4 0 -7 26 -8 58 -1 31 1 51 4 44 2 -6 10 -9 16 -5 7 3 9 3 5 -2 -4 -4
-2 -15 5 -23 10 -13 9 -14 -3 -7 -12 7 -13 6 -3 -6 10 -12 10 -18 0 -29 -9
-10 -9 -11 1 -6 8 5 12 0 12 -13 0 -15 6 -19 30 -19 30 1 44 18 15 18 -8 0
-15 5 -15 11 0 5 4 8 9 5 5 -3 8 12 7 35 0 22 -7 44 -15 48 -11 7 -10 12 8 22
11 8 21 21 20 29 0 9 -2 11 -5 3 -8 -18 -34 -4 -27 14 4 11 2 14 -5 9 -7 -4
-11 2 -10 16 3 68 -3 109 -14 102 -7 -5 -8 -3 -3 6 8 12 11 61 5 75 -2 3 -4
14 -5 25 -1 11 -3 21 -5 23 -7 9 -6 37 1 37 6 0 7 6 2 13 -12 19 -12 38 -1 31
7 -5 8 -2 3 7 -14 22 -14 101 0 95 6 -2 12 2 12 9 0 7 -6 11 -12 8 -8 -2 -12
5 -11 18 1 29 26 38 26 9 0 -34 33 -8 36 29 1 17 -1 29 -6 26 -4 -3 -7 3 -5
12 1 12 9 17 21 15 25 -5 32 -12 12 -12 -22 0 -11 -40 11 -41 12 0 11 -2 -4
-9 -11 -5 -14 -9 -7 -9 6 -1 12 -6 12 -12 0 -5 -4 -7 -10 -4 -5 3 -10 1 -10
-4 0 -6 6 -11 13 -11 8 0 7 -4 -3 -10 -9 -6 -10 -10 -3 -10 14 0 13 -40 -2
-40 -5 0 -3 -5 5 -10 8 -5 11 -10 6 -10 -5 0 -4 -6 2 -12 5 -7 9 -46 8 -85 -1
-41 3 -75 9 -77 5 -3 -1 -4 -14 -2 -16 2 -25 10 -28 24 -1 12 2 21 8 19 6 -1
13 4 14 11 2 7 1 8 -1 3 -3 -6 -12 -7 -20 -4 -9 3 -14 -2 -15 -18 -1 -32 -6
-69 -13 -97 -3 -14 -1 -20 6 -16 6 4 6 -1 -1 -14 -6 -12 -7 -23 -2 -26 4 -3 7
-19 5 -35 -2 -19 3 -34 14 -43 15 -12 16 -11 3 5 -9 11 -11 21 -5 25 5 4 9 28
9 55 0 35 -3 47 -15 47 -12 0 -12 2 -2 9 7 4 14 17 15 28 0 11 7 20 14 19 17
-3 29 -16 15 -16 -8 0 -9 -7 -3 -22 4 -13 6 -29 4 -35 -3 -7 -1 -13 4 -13 4 0
8 -26 8 -57 0 -32 3 -86 7 -120 3 -39 1 -66 -6 -74 -8 -9 -8 -10 2 -5 8 5 12
0 12 -13 0 -12 -6 -21 -12 -21 -9 0 -9 -3 1 -9 8 -5 15 -25 16 -44 0 -20 -3
-34 -7 -31 -4 3 -8 -4 -8 -16 0 -12 4 -19 9 -16 5 3 11 -5 13 -19 4 -18 1 -25
-10 -25 -13 0 -12 -3 4 -16 16 -13 16 -15 2 -10 -10 3 -18 1 -18 -4 0 -6 8
-10 18 -10 14 0 15 -2 2 -10 -10 -6 -11 -10 -2 -10 6 0 12 -5 12 -11 0 -5 -4
-7 -10 -4 -17 11 -11 -27 8 -42 13 -11 14 -14 2 -10 -20 6 -24 -29 -4 -37 8
-3 14 -10 14 -16 0 -6 -4 -8 -10 -5 -5 3 -10 -1 -10 -9 0 -9 6 -15 13 -14 8 2
13 -13 15 -42 2 -24 9 -48 15 -52 9 -6 9 -8 -1 -8 -7 0 -10 -4 -7 -10 3 -5 0
-10 -7 -10 -9 0 -9 -3 2 -10 13 -8 12 -10 -3 -10 -10 0 -15 -5 -12 -10 4 -6
16 -8 28 -5 12 2 16 2 10 -1 -9 -4 -10 -11 -3 -23 5 -10 6 -21 2 -25 -3 -4 0
-11 8 -16 12 -8 11 -10 -5 -10 -16 0 -17 -2 -5 -10 13 -8 13 -11 1 -22 -11
-11 -13 -11 -6 1 5 9 4 12 -3 8 -12 -8 -11 -25 2 -46 6 -10 5 -12 -2 -7 -8 5
-12 -1 -12 -16 0 -18 2 -20 10 -8 8 13 10 13 10 -2 0 -9 -4 -19 -8 -22 -13 -8
-1 -76 14 -76 21 0 25 -17 8 -34 -8 -9 -12 -16 -7 -16 5 0 13 4 19 10 8 8 11
-18 5 -49 -1 -3 -7 3 -14 13 -12 16 -13 16 -14 -3 -1 -14 4 -21 15 -21 12 0
13 -3 5 -8 -12 -8 -7 -52 6 -52 4 0 8 -6 9 -12 0 -7 3 -24 6 -36 4 -17 1 -22
-8 -19 -9 4 -12 -3 -10 -21 1 -15 3 -29 4 -32 1 -3 2 -8 1 -12 0 -4 7 -5 17
-2 13 5 14 4 3 -4 -9 -7 -10 -11 -2 -17 9 -5 9 -10 0 -21 -7 -9 -8 -14 -1 -14
10 0 28 -38 24 -52 -1 -4 5 -23 14 -43 12 -30 17 -35 29 -25 8 7 15 20 15 29
0 14 2 14 11 1 7 -11 8 3 4 50 -3 36 -8 85 -10 110 -9 99 -17 176 -20 200 -12
83 -18 142 -19 192 0 33 -6 60 -12 62 -7 2 -9 16 -7 30 3 15 1 26 -6 26 -6 0
-11 5 -11 11 0 5 4 8 9 5 5 -4 8 1 7 10 -1 8 -9 20 -17 25 -12 7 -12 9 0 9 10
0 12 9 8 35 -4 23 -2 35 6 35 9 0 9 2 0 8 -13 8 -23 59 -27 132 -1 25 -5 51
-10 58 -4 6 -4 12 1 12 4 0 1 5 -7 10 -10 6 -11 10 -3 10 8 0 12 13 11 35 -1
19 -4 32 -8 30 -3 -2 -3 21 0 51 4 35 2 54 -4 55 -6 0 -2 4 9 9 16 7 16 9 4 9
-21 1 -20 33 1 43 13 6 13 7 -1 7 -9 1 -16 7 -17 14 -9 113 -8 156 2 150 6 -4
5 1 -3 11 -15 18 -22 66 -9 66 4 0 3 11 -2 25 -7 18 -6 25 3 25 7 0 8 3 2 8
-6 4 -10 56 -11 117 0 61 -4 145 -7 187 -5 57 -4 78 6 81 9 4 9 6 0 6 -7 1
-13 10 -13 21 0 11 6 20 13 21 6 0 3 4 -8 9 -16 7 -17 9 -3 9 9 1 19 -3 22 -8
7 -10 18 -245 16 -333 0 -31 4 -59 10 -63 5 -3 10 -22 10 -41 0 -19 4 -34 9
-34 10 0 5 172 -6 200 -3 8 -6 42 -8 75 -1 33 -5 99 -10 148 -6 71 -5 87 6 87
10 0 11 2 2 8 -14 9 -24 70 -12 78 16 10 10 24 -8 18 -17 -5 -17 -5 0 6 9 6
17 21 16 33 0 12 -3 16 -6 10 -8 -21 -20 -15 -17 9 1 13 3 30 3 38 1 13 2 13
11 0 8 -12 10 -10 10 8 0 13 -4 20 -10 17 -6 -4 -10 -3 -9 2 4 21 -2 24 -18
12 -16 -13 -17 -12 -4 4 10 13 17 15 27 6 11 -9 13 0 9 48 -2 32 -4 60 -4 63
-1 3 -6 -2 -11 -10 -8 -13 -10 -12 -10 3 0 9 5 17 10 17 6 0 10 14 10 30 0 17
-5 30 -12 30 -10 0 -10 2 0 9 11 7 13 78 7 397 -3 214 -8 405 -10 424 -2 19
-4 72 -4 118 -1 50 -5 82 -12 82 -5 0 -7 -6 -3 -12 4 -7 3 -9 -1 -5 -17 15
-14 36 3 30 14 -5 14 -3 -2 15 -11 12 -15 22 -10 22 5 0 2 5 -6 11 -12 8 -10
9 8 4 21 -6 22 -4 14 12 -5 10 -8 26 -7 36 2 9 -1 17 -6 17 -6 0 -7 6 -2 13
11 18 12 37 2 37 -6 0 -7 5 -3 11 3 6 0 15 -7 20 -10 6 -11 9 -1 9 6 0 12 9
12 20 0 11 -6 20 -12 20 -10 0 -10 2 0 9 19 11 19 15 3 34 -9 12 -10 17 -2 17
7 0 9 5 4 13 -9 15 -10 31 -13 255 -1 131 -5 182 -13 182 -8 0 -7 3 2 9 7 5 9
11 5 14 -12 7 -11 468 0 486 6 9 5 12 -2 7 -17 -10 -19 28 -2 42 11 9 12 12 1
10 -11 -2 -14 24 -17 132 -2 74 -5 162 -8 195 -3 33 -9 116 -12 185 -4 69 -10
126 -13 128 -4 1 -5 21 -3 45 1 23 4 250 5 505 2 405 0 462 -13 463 -10 0 -9
3 4 8 14 5 16 10 7 15 -20 13 -23 2 -23 -86 0 -45 -4 -91 -10 -101 -7 -14 -7
-17 1 -13 15 10 14 -27 -1 -43 -7 -8 -8 -11 -3 -8 6 3 9 -32 7 -101 -3 -114
-16 -156 -20 -69 -3 55 -5 73 -15 97 -3 8 -8 71 -11 140 -4 111 -3 122 9 95 7
-16 14 -25 14 -20 1 6 -8 27 -19 47 -14 26 -16 39 -8 44 6 4 8 3 4 -4 -3 -6
-2 -13 4 -17 5 -3 10 3 10 14 0 12 -4 21 -9 21 -6 0 -9 9 -8 19 0 11 5 17 9
15 5 -3 5 -10 2 -16 -4 -6 -2 -8 4 -4 5 3 12 0 15 -6 3 -7 4 -3 4 9 -1 12 -3
20 -6 18 -11 -11 -29 31 -20 47 6 11 6 18 0 18 -10 0 -9 25 2 36 4 4 7 -3 7
-15 0 -26 22 -24 26 2 1 9 -2 15 -7 11 -5 -3 -9 5 -10 18 0 13 -3 17 -6 11 -8
-21 -22 -15 -18 7 2 11 6 24 10 29 3 5 1 12 -4 16 -15 9 -1 35 15 28 16 -6 19
-43 4 -43 -5 0 -10 -4 -10 -8 0 -5 6 -9 14 -9 8 0 13 11 13 31 -1 18 2 36 6
42 3 6 0 20 -7 30 -13 17 -14 17 -9 -9 3 -15 1 -27 -5 -27 -14 0 -33 26 -25
34 4 4 8 22 9 39 1 36 12 67 24 67 9 0 8 -19 -2 -35 -3 -6 0 -19 8 -30 12 -16
14 -17 14 -2 0 9 -5 17 -11 17 -6 0 -7 5 -2 13 13 21 11 56 -4 50 -7 -3 -13 2
-13 12 0 9 -4 13 -10 10 -5 -3 -10 -2 -10 4 0 5 6 12 13 14 9 4 9 6 -1 6 -7 1
-10 6 -7 11 3 6 1 10 -4 10 -6 0 -11 4 -11 10 0 5 5 9 12 7 11 -2 14 97 3 151
-2 13 1 22 8 22 7 1 2 9 -10 19 -13 11 -23 22 -23 26 0 4 6 3 13 -3 10 -8 16
-6 25 9 7 11 17 17 23 14 12 -8 9 55 -3 72 -5 6 -5 14 2 18 5 3 10 11 10 16 0
6 -4 8 -9 4 -6 -3 -8 4 -6 17 14 68 23 530 11 518 -5 -5 -9 -27 -10 -49 -1
-22 -5 -43 -9 -47 -3 -4 -4 69 -1 162 3 93 8 171 10 173 2 2 4 -17 4 -42 0
-26 4 -47 8 -47 12 0 2 94 -9 98 -5 2 -9 13 -9 23 0 11 4 18 9 15 10 -7 9 20
-2 30 -13 13 -7 23 11 18 14 -5 15 -4 2 5 -13 9 -13 11 0 11 12 1 11 3 -3 11
-9 6 -14 15 -11 21 4 7 2 8 -5 4 -9 -6 -9 -11 0 -22 8 -10 8 -14 0 -14 -6 0
-11 -9 -11 -20 0 -11 -4 -20 -10 -20 -5 0 -10 -5 -10 -11 0 -5 5 -7 10 -4 6 3
10 -3 10 -14 0 -12 -4 -21 -9 -21 -5 0 -7 -9 -4 -20 3 -11 2 -28 -3 -37 -4
-10 -8 -21 -8 -25 -1 -3 -4 -10 -8 -14 -4 -4 -3 -13 3 -21 9 -10 8 -17 -2 -30
-8 -9 -9 -14 -2 -10 7 5 10 1 8 -10 -2 -10 -4 -22 -4 -26 -1 -5 -5 -5 -11 -2
-5 3 -10 2 -10 -4 0 -5 5 -11 12 -13 6 -2 13 -15 15 -29 2 -19 1 -21 -7 -9 -9
13 -14 7 -11 -12 0 -5 -4 -8 -11 -8 -6 0 -3 -7 8 -16 10 -8 12 -12 4 -8 -12 6
-13 5 -5 -7 11 -14 11 -77 1 -244 -7 -126 -15 -280 -21 -405 -8 -169 -9 -173
-25 -177 -12 -4 -12 -3 -1 5 9 7 10 12 2 16 -8 5 -8 13 0 27 8 17 7 24 -8 36
-13 11 -14 13 -3 10 11 -3 16 2 17 15 1 12 -3 18 -11 15 -7 -3 -13 1 -13 8 0
7 5 11 12 9 6 -3 11 9 12 31 0 24 -4 35 -13 35 -8 0 -14 4 -14 10 0 5 7 7 15
4 10 -4 15 0 15 15 0 12 -4 21 -10 21 -5 0 -10 4 -10 10 0 5 6 7 13 4 8 -3 13
3 13 16 0 11 -6 20 -13 20 -7 0 -13 4 -13 10 0 5 6 7 14 4 12 -4 15 4 14 38 0
23 -5 46 -12 50 -8 6 -7 8 2 8 6 0 12 9 12 21 0 11 -4 17 -10 14 -5 -3 -10 1
-10 10 0 9 4 14 9 11 10 -7 25 24 16 33 -3 3 -10 -1 -15 -9 -7 -11 -9 -10 -8
7 1 12 7 19 15 16 8 -3 13 3 13 16 0 23 -15 29 -23 9 -3 -7 -4 -3 -4 8 1 12 6
20 13 17 6 -2 14 5 17 16 3 14 0 21 -9 21 -8 0 -14 5 -14 11 0 5 4 8 9 5 5 -3
11 3 14 14 6 22 -8 28 -16 8 -3 -7 -6 -3 -6 9 -1 17 3 21 16 16 10 -4 14 -2
10 4 -4 6 -1 14 5 16 10 4 9 8 -2 16 -9 6 -10 11 -3 11 6 0 9 9 6 21 -4 12
-11 18 -20 15 -8 -3 -11 -1 -8 4 3 5 8 54 10 107 7 154 16 341 21 418 2 39 6
121 9 184 2 63 6 128 9 145 3 17 6 60 7 96 1 36 4 68 6 72 2 4 6 47 9 95 9
194 9 206 -6 211 -13 3 -13 2 0 -7 9 -7 10 -11 3 -11 -23 0 -25 21 -2 41 19
17 19 23 -2 21 -3 -1 -7 30 -8 69 -1 38 2 69 6 69 5 0 7 -16 5 -36 -3 -24 0
-39 9 -45 10 -6 11 -9 2 -9 -7 0 -13 -7 -13 -15 0 -8 5 -15 10 -15 6 0 9 3 9
8 -1 4 0 9 1 12 9 22 6 70 -3 70 -8 0 -8 3 -2 8 14 10 17 32 5 32 -5 0 -7 6
-5 13 11 30 13 67 4 67 -6 0 -7 6 -2 13 13 21 11 34 -6 33 -9 -1 -17 7 -17 19
-1 11 -3 25 -4 30 -1 6 -2 13 -1 18 2 10 -13 9 -25 -3 -7 -7 -10 31 -9 112 1
68 3 128 5 133 1 6 1 15 0 20 -1 6 -4 20 -6 33 -3 13 -13 33 -24 44 -11 12
-17 25 -14 30 3 4 0 8 -5 8 -6 0 -10 3 -10 8 4 21 -2 43 -10 38 -12 -8 -10
-100 3 -108 7 -5 6 -8 -4 -8 -13 0 -13 -1 0 -10 12 -7 12 -12 2 -22 -9 -9 -12
-9 -13 3 0 8 -4 6 -9 -6 -4 -12 -6 12 -5 60 2 52 -1 83 -9 87 -8 6 -7 8 2 8 8
0 6 8 -7 22 -11 11 -18 25 -15 30 3 5 -2 18 -13 30 -10 11 -17 22 -15 24 6 10
1 24 -9 24 -7 0 -9 -11 -6 -27 l5 -28 -18 23 c-11 13 -23 23 -27 23 -9 -1 -10
6 -13 94 l-3 60 -7 -45 c-6 -44 -6 -44 -11 23 -2 38 -1 71 4 74 4 2 7 1 6 -4
-4 -22 2 -44 10 -38 9 5 7 42 -3 52 -3 3 -19 -2 -37 -11 -30 -15 -34 -15 -51
1 -11 10 -16 24 -12 35 3 11 0 18 -8 19 -7 0 -4 4 7 9 17 7 17 9 3 9 -12 1
-18 9 -18 26 0 18 4 23 15 19 8 -4 15 -1 15 5 0 6 -4 11 -10 11 -5 0 -10 8
-10 18 0 14 2 15 10 2 5 -8 10 -13 11 -10 0 3 2 13 4 23 2 9 -3 17 -10 17 -7
0 -18 7 -25 15 -13 15 -41 21 -39 8 4 -22 -3 -31 -18 -28 -10 2 -28 4 -40 4
-18 1 -23 7 -23 27 0 15 -4 23 -11 19 -6 -4 -8 -9 -5 -12 3 -3 1 -15 -5 -26
-8 -14 -8 -18 0 -13 6 4 11 3 11 -2 0 -6 -7 -12 -15 -16 -8 -3 -15 0 -15 6 0
6 -3 8 -7 4 -11 -11 -11 -66 0 -66 5 0 4 -7 -3 -15 -7 -8 -9 -15 -4 -15 11 0
-18 -20 -28 -20 -5 0 -8 7 -8 16 0 8 -4 13 -9 9 -5 -3 -12 -1 -16 5 -3 5 1 10
11 10 14 0 15 2 3 17 -12 14 -12 16 0 8 10 -6 12 -4 7 4 -5 7 -18 17 -30 22
l-21 10 21 -5 c33 -6 23 26 -12 41 -16 7 -23 12 -16 13 6 0 11 3 11 8 -3 20 2
32 16 32 9 0 12 6 8 16 -5 13 -7 13 -14 2 -7 -11 -9 -11 -9 0 0 9 -7 11 -19 7
-17 -5 -37 17 -33 38 1 4 -2 7 -7 7 -6 0 -8 10 -5 23 3 12 8 41 11 64 4 28 9
40 17 36 6 -4 6 -1 -1 9 -7 8 -10 18 -6 21 3 4 -2 9 -11 13 -9 3 -16 12 -16
20 0 8 -9 14 -21 14 -11 0 -18 -4 -14 -9 3 -6 -3 -15 -14 -21 -13 -7 -22 -7
-26 0 -3 5 -3 10 1 10 3 0 1 6 -5 14 -7 9 -8 17 -2 20 5 3 8 14 6 24 -2 9 -4
27 -4 39 -1 16 -6 20 -20 16 -14 -4 -20 3 -25 27 -3 18 -6 43 -6 56 0 12 -5
26 -11 30 -8 5 -10 -1 -7 -19 5 -27 -12 -43 -29 -26 -5 5 -9 1 -10 -11 -1 -13
3 -17 13 -13 10 4 12 0 8 -11 -3 -9 -10 -13 -15 -10 -8 5 -13 -22 -10 -56 1
-11 -1 -11 -9 3 -6 9 -8 21 -5 27 3 5 -3 7 -14 5 -16 -3 -20 3 -23 37 -2 22
-1 41 2 43 9 5 0 64 -10 70 -4 2 -6 -9 -4 -26 2 -16 0 -28 -4 -25 -4 2 -7 -25
-6 -60 1 -39 -2 -61 -8 -58 -5 4 -9 -4 -8 -17 3 -39 -2 -46 -10 -14 l-8 30 -1
-27 c-1 -24 -5 -27 -31 -25 -30 2 -44 31 -18 39 16 6 19 91 4 100 -7 5 -5 8 7
8 13 0 17 -9 17 -37 1 -31 3 -35 11 -20 11 18 7 113 -5 125 -4 4 -6 0 -4 -8 2
-8 -5 -16 -17 -17 -15 -2 -25 8 -40 40 -24 50 -54 60 -72 22z m74 -60 c0 -8
-4 -12 -9 -9 -5 3 -6 10 -3 15 9 13 12 11 12 -6z m-209 -34 c-7 -12 -16 -21
-20 -21 -10 0 3 33 16 42 17 11 18 2 4 -21z m117 -29 c-3 -3 -11 0 -18 7 -9
10 -8 11 6 5 10 -3 15 -9 12 -12z m-14 -225 c-6 -8 -9 -17 -6 -20 3 -4 2 -5
-2 -2 -3 3 -13 -1 -22 -8 -9 -7 -8 -2 4 15 11 15 24 28 29 28 5 0 3 -6 -3 -13z
m75 -35 c-3 -3 0 -12 6 -21 10 -13 10 -14 -2 -4 -16 15 -23 46 -8 37 5 -3 7
-9 4 -12z m-80 -47 c-3 -23 -12 -26 -13 -5 -1 11 2 20 7 20 4 0 7 -7 6 -15z
m12 -59 c-8 -6 -17 -18 -21 -26 -4 -10 -6 -8 -6 8 -1 14 5 22 15 22 9 0 12 5
8 12 -5 7 -3 8 6 3 10 -6 10 -10 -2 -19z m79 -8 c-3 -8 -6 -5 -6 6 -1 11 2 17
5 13 3 -3 4 -12 1 -19z m-117 -3 c0 -2 -9 -3 -19 -2 -11 0 -18 5 -15 9 4 6 34
0 34 -7z m103 -35 c3 -11 2 -20 -3 -20 -4 0 -10 9 -13 20 -3 11 -2 20 3 20 4
0 10 -9 13 -20z m-70 -1 c-6 -6 -9 -18 -6 -25 3 -9 -2 -14 -13 -14 -15 0 -16
2 -5 9 11 7 11 10 0 16 -9 6 -8 10 7 16 27 11 29 10 17 -2z m73 -69 c1 -24 -4
-41 -13 -44 -7 -3 -13 -1 -13 4 0 6 6 10 13 10 7 0 8 3 2 8 -13 9 -14 62 0 62
5 0 11 -18 11 -40z m-91 -29 c3 -5 2 -12 -3 -15 -5 -3 -9 1 -9 9 0 17 3 19 12
6z m699 -8 c-17 -3 -20 -9 -16 -30 3 -18 1 -24 -7 -19 -6 4 -9 12 -6 17 4 5 2
9 -3 9 -5 0 -9 6 -9 13 0 8 13 13 31 14 18 0 22 -1 10 -4z m73 -7 c0 -8 -6
-12 -15 -9 -11 5 -11 7 0 14 7 5 13 9 14 9 0 0 1 -6 1 -14z m-673 -21 c3 -8 1
-15 -3 -15 -5 0 -12 6 -14 13 -3 6 -6 2 -6 -11 -1 -13 3 -20 9 -17 6 3 10 2
10 -4 0 -24 -19 -18 -28 8 -8 22 -7 31 1 35 20 8 25 7 31 -9z m636 -15 c-13
-11 -18 -20 -13 -20 12 0 5 -48 -8 -56 -10 -6 -12 7 -9 45 2 28 19 50 39 51 9
0 6 -7 -9 -20z m-54 -43 c1 -9 -1 -19 -6 -22 -5 -3 -7 3 -6 12 2 10 -2 22 -8
26 -7 6 -6 7 3 5 8 -2 15 -12 17 -21z m-131 -17 c1 -11 -2 -20 -7 -20 -4 0 -7
11 -6 25 3 28 11 24 13 -5z m-469 -2 c-1 -7 -5 -19 -9 -25 -6 -9 -3 -11 10 -6
14 5 16 4 7 -8 -6 -8 -10 -28 -9 -46 2 -27 0 -30 -15 -21 -17 11 -23 38 -9 38
5 0 5 10 0 22 -5 15 -3 27 8 40 18 21 20 22 17 6z m-21 -118 c3 -5 1 -10 -4
-10 -6 0 -11 5 -11 10 0 6 2 10 4 10 3 0 8 -4 11 -10z m14 -37 c0 -11 -3 -13
-6 -5 -2 6 -10 9 -15 6 -7 -4 -8 -2 -4 4 11 18 26 14 25 -5z m-5 -62 c-7 -9
-24 13 -24 32 0 21 1 21 13 -3 8 -14 12 -27 11 -29z m6 -26 c0 -2 -7 -2 -15 1
-10 4 -13 2 -10 -8 3 -8 -2 -21 -12 -29 -16 -12 -17 -12 -7 1 5 8 9 25 8 37
-1 19 2 21 17 12 11 -5 19 -12 19 -14z m-42 -136 c-1 -17 -5 -32 -9 -35 -4 -2
-6 4 -4 13 2 10 4 26 4 36 1 9 3 17 6 17 3 0 4 -14 3 -31z m1089 -85 c0 -7 -6
-10 -14 -7 -7 3 -13 8 -13 12 0 4 6 8 13 8 8 0 14 -6 14 -13z m-34 -89 c-3 -9
-8 -14 -10 -11 -3 3 -2 9 2 15 9 16 15 13 8 -4z m-1086 -237 c-3 -8 -6 -5 -6
6 -1 11 2 17 5 13 3 -3 4 -12 1 -19z m1220 -94 c-3 -3 -12 -4 -19 -1 -8 3 -5
6 6 6 11 1 17 -2 13 -5z m-9 -69 c-3 -3 -9 2 -12 12 -6 14 -5 15 5 6 7 -7 10
-15 7 -18z m-8 -265 c0 -5 -2 -10 -4 -10 -3 0 -8 5 -11 10 -3 6 -1 10 4 10 6
0 11 -4 11 -10z m-1790 -1120 c0 -5 -2 -10 -4 -10 -3 0 -8 5 -11 10 -3 6 -1
10 4 10 6 0 11 -4 11 -10z m0 -50 c0 -5 -2 -10 -4 -10 -3 0 -8 5 -11 10 -3 6
-1 10 4 10 6 0 11 -4 11 -10z m1797 -182 c-3 -8 -6 -5 -6 6 -1 11 2 17 5 13 3
-3 4 -12 1 -19z m0 -50 c-3 -7 -5 -2 -5 12 0 14 2 19 5 13 2 -7 2 -19 0 -25z
m-10 -140 c-3 -7 -5 -2 -5 12 0 14 2 19 5 13 2 -7 2 -19 0 -25z m-10 -220 c-2
-18 -4 -6 -4 27 0 33 2 48 4 33 2 -15 2 -42 0 -60z m20 50 c-3 -7 -5 -2 -5 12
0 14 2 19 5 13 2 -7 2 -19 0 -25z m8 -67 c3 -5 2 -12 -3 -15 -5 -3 -9 1 -9 9
0 17 3 19 12 6z m-38 -168 c-2 -16 -4 -3 -4 27 0 30 2 43 4 28 2 -16 2 -40 0
-55z m-10 -115 c-3 -8 -6 -5 -6 6 -1 11 2 17 5 13 3 -3 4 -12 1 -19z m-47 -6
c-8 -3 -18 -10 -22 -16 -4 -6 -6 -1 -6 10 2 16 7 20 22 16 15 -4 17 -7 6 -10z
m-15 -41 c3 -5 1 -12 -5 -16 -5 -3 -10 1 -10 9 0 18 6 21 15 7z m98 -56 c-7
-21 -12 -19 -10 4 0 11 5 18 9 15 4 -3 5 -11 1 -19z m-93 1 c0 -2 -7 -7 -16
-10 -8 -3 -12 -2 -9 4 6 10 25 14 25 6z m55 -15 c3 -5 2 -12 -3 -15 -5 -3 -9
1 -9 9 0 17 3 19 12 6z m-8 -83 c-3 -7 -5 -2 -5 12 0 14 2 19 5 13 2 -7 2 -19
0 -25z m-62 2 c3 -5 1 -10 -4 -10 -6 0 -11 5 -11 10 0 6 2 10 4 10 3 0 8 -4
11 -10z m14 -63 c8 -10 7 -14 -4 -14 -8 0 -12 4 -9 8 2 4 -2 10 -8 12 -8 4 -9
6 -2 6 6 1 17 -5 23 -12z m48 -2 c0 -8 -4 -12 -9 -9 -5 3 -6 10 -3 15 9 13 12
11 12 -6z m-44 -91 c0 -23 -2 -45 -5 -50 -3 -5 -4 -55 -3 -112 0 -56 -2 -96
-7 -89 -9 17 -13 173 -5 210 4 20 1 30 -9 34 -20 8 -17 23 4 17 16 -5 16 -4
-1 9 -14 11 -15 16 -5 20 24 10 31 1 31 -39z m-36 -46 c-3 -7 -5 -2 -5 12 0
14 2 19 5 13 2 -7 2 -19 0 -25z m50 -370 c-3 -8 -6 -5 -6 6 -1 11 2 17 5 13 3
-3 4 -12 1 -19z m0 -55 c-3 -10 -5 -4 -5 12 0 17 2 24 5 18 2 -7 2 -21 0 -30z
m68 -3 c-3 -5 -12 -10 -18 -10 -7 0 -6 4 3 10 19 12 23 12 15 0z m-3 -97 c-2
-43 -6 -80 -9 -83 -3 -3 -3 23 -1 58 2 37 -1 62 -7 63 -5 0 -4 3 3 6 10 4 10
8 1 19 -9 11 -8 14 3 14 12 0 14 -15 10 -77z m-25 -55 c0 -21 -1 -24 -4 -10
-3 14 -9 20 -16 15 -7 -4 -6 1 2 10 17 22 17 22 18 -15z m13 -53 c-6 -8 -9
-19 -5 -25 3 -5 1 -10 -4 -10 -15 0 -14 37 2 43 19 8 20 8 7 -8z m4 -102 c-1
-26 1 -52 4 -57 3 -5 6 -77 7 -160 2 -139 2 -144 -6 -56 -4 52 -10 137 -13
189 -4 52 -12 101 -19 110 -9 12 -9 13 1 7 7 -4 12 -1 12 9 0 9 3 14 8 11 4
-2 7 -26 6 -53z m23 -30 c-2 -16 -4 -3 -4 27 0 30 2 43 4 28 2 -16 2 -40 0
-55z m-1342 47 c3 -5 1 -10 -4 -10 -6 0 -11 5 -11 10 0 6 2 10 4 10 3 0 8 -4
11 -10z m902 -182 c-3 -8 -6 -5 -6 6 -1 11 2 17 5 13 3 -3 4 -12 1 -19z m419
-540 c-3 -48 -15 -42 -14 7 0 28 4 42 8 34 4 -8 7 -26 6 -41z m-234 2 c3 -17
2 -33 -2 -35 -3 -2 -7 12 -8 31 -3 42 4 45 10 4z m24 -6 c1 -9 0 -13 -4 -10
-3 4 -7 14 -8 22 -1 9 0 13 4 10 3 -4 7 -14 8 -22z m-229 -39 c0 -8 -4 -15 -9
-15 -4 0 -8 7 -8 15 0 8 4 15 8 15 5 0 9 -7 9 -15z m439 -40 c-1 -8 -5 -17 -8
-21 -5 -4 -4 16 1 34 3 9 9 -1 7 -13z m-216 -24 c0 -6 -4 -12 -8 -15 -5 -3 -9
1 -9 9 0 8 4 15 9 15 4 0 8 -4 8 -9z m215 -30 c3 -5 2 -12 -3 -15 -5 -3 -9 1
-9 9 0 17 3 19 12 6z m-8 -63 c-3 -7 -5 -2 -5 12 0 14 2 19 5 13 2 -7 2 -19 0
-25z m-80 -10 c-3 -8 -6 -5 -6 6 -1 11 2 17 5 13 3 -3 4 -12 1 -19z m-17 2 c0
-5 -5 -10 -11 -10 -5 0 -7 5 -4 10 3 6 8 10 11 10 2 0 4 -4 4 -10z m-120 -26
c0 -9 5 -12 12 -8 7 4 8 3 4 -5 -4 -7 -13 -10 -19 -8 -13 4 -19 37 -6 37 5 0
9 -7 9 -16z m137 -13 c0 -10 -7 -18 -14 -17 -20 3 -28 16 -9 16 9 0 14 5 11
10 -3 6 -2 10 4 10 5 0 9 -8 8 -19z m-169 -36 c0 -46 -11 -67 -22 -39 -3 9 -2
12 5 8 6 -3 10 1 9 12 -3 28 -1 64 4 64 2 0 4 -20 4 -45z m252 35 c0 -5 -5
-10 -11 -10 -5 0 -7 5 -4 10 3 6 8 10 11 10 2 0 4 -4 4 -10z m-217 -37 c-5
-12 -3 -14 7 -8 9 5 11 4 6 -4 -4 -7 -13 -10 -19 -8 -16 5 -17 37 -1 37 8 0
11 -6 7 -17z m141 -9 c9 -23 7 -104 -2 -104 -5 0 -17 7 -28 16 -10 8 -13 12
-5 8 11 -5 13 -3 8 10 -6 14 -3 17 9 12 14 -5 15 -4 4 9 -10 12 -10 15 1 15 8
0 6 6 -7 16 -18 15 -18 15 0 10 16 -6 17 -4 6 9 -7 8 -8 15 -2 15 5 0 13 -7
16 -16z m76 -10 c0 -8 -5 -12 -10 -9 -6 4 -8 11 -5 16 9 14 15 11 15 -7z
m-220 -30 c0 -12 3 -14 13 -6 11 9 13 2 12 -36 -1 -26 3 -50 9 -54 8 -5 7 -8
-2 -8 -8 0 -10 -5 -5 -12 12 -20 12 -38 1 -38 -7 0 -7 -4 -1 -12 6 -7 9 -56 8
-108 0 -54 3 -101 9 -109 9 -12 8 -13 -3 -6 -11 6 -13 1 -9 -24 3 -18 0 -34
-5 -38 -5 -3 -3 -10 4 -15 11 -6 9 -8 -6 -6 -18 3 -20 -3 -20 -49 0 -29 -4
-53 -10 -53 -6 0 -10 58 -10 160 0 87 3 156 7 152 4 -4 8 -33 10 -64 4 -85 15
-71 14 17 -1 41 2 75 7 75 4 0 5 6 0 13 -12 19 -12 37 -1 37 7 0 7 4 1 13 -6
6 -9 38 -9 70 2 51 -1 57 -19 58 -19 0 -19 1 3 9 12 5 22 12 22 15 0 4 -4 3
-10 0 -5 -3 -18 -1 -27 4 -11 6 -13 11 -5 11 7 0 10 5 7 10 -3 6 -1 10 4 10 6
0 11 -7 11 -16z m215 -3 c3 -5 2 -12 -3 -15 -5 -3 -9 1 -9 9 0 17 3 19 12 6z
m-258 -33 c2 -17 0 -19 -7 -8 -5 8 -6 18 -4 22 8 12 10 10 11 -14z m43 -28 c0
-5 -7 -7 -15 -4 -8 4 -15 8 -15 10 0 2 7 4 15 4 8 0 15 -4 15 -10z m151 -10
c5 0 9 -9 9 -20 0 -11 -6 -20 -12 -20 -9 0 -8 -4 2 -10 10 -6 11 -10 3 -10 -7
0 -13 -9 -13 -20 0 -11 6 -20 13 -21 10 0 10 -2 0 -6 -8 -3 -13 -26 -14 -61 0
-31 -3 -50 -6 -42 -3 8 -13 24 -22 35 -14 17 -14 18 0 7 14 -10 16 -5 15 53
-1 36 -4 65 -8 65 -4 0 -3 11 2 24 5 14 6 26 2 29 -4 2 -1 2 6 0 8 -1 18 -3
23 -3z m134 -40 c2 -23 -10 -27 -19 -5 -3 8 -1 15 5 15 6 0 7 6 3 13 -4 6 -3
9 1 4 5 -4 9 -16 10 -27z m-285 10 c0 -5 -8 -10 -17 -10 -15 0 -16 2 -3 10 19
12 20 12 20 0z m0 -56 c0 -8 -19 -13 -24 -6 -3 5 1 9 9 9 8 0 15 -2 15 -3z
m-5 -54 c3 -5 1 -10 -4 -10 -6 0 -11 5 -11 10 0 6 2 10 4 10 3 0 8 -4 11 -10z
m162 -42 c-3 -7 -5 -2 -5 12 0 14 2 19 5 13 2 -7 2 -19 0 -25z m126 -5 c-7 -2
-19 -2 -25 0 -7 3 -2 5 12 5 14 0 19 -2 13 -5z m-168 -22 c-3 -6 3 -14 12 -20
10 -6 13 -11 7 -11 -15 0 -36 25 -27 33 10 10 15 8 8 -2z m42 -23 c-3 -7 -5
-2 -5 12 0 14 2 19 5 13 2 -7 2 -19 0 -25z m126 -5 c-7 -2 -19 -2 -25 0 -7 3
-2 5 12 5 14 0 19 -2 13 -5z m-143 -33 c0 -11 -2 -20 -4 -20 -2 0 -6 9 -9 20
-3 11 -1 20 4 20 5 0 9 -9 9 -20z m150 -16 c0 -2 -7 -4 -15 -4 -8 0 -15 4 -15
10 0 5 7 7 15 4 8 -4 15 -8 15 -10z m-105 -119 c4 -55 8 -111 10 -125 3 -14 5
-63 6 -110 1 -51 6 -88 13 -92 8 -6 7 -8 -1 -8 -7 0 -13 -9 -13 -20 0 -11 6
-20 13 -20 8 0 7 -4 -3 -10 -10 -6 -11 -10 -2 -10 6 0 12 -5 12 -11 0 -5 -4
-7 -10 -4 -5 3 -10 1 -10 -4 0 -6 6 -11 13 -11 8 0 7 -4 -3 -10 -12 -8 -12
-10 -1 -10 10 0 11 -3 2 -14 -9 -11 -8 -15 6 -20 15 -6 15 -8 0 -23 -15 -15
-15 -17 1 -30 13 -10 13 -12 2 -8 -25 9 -22 -31 3 -44 21 -11 21 -11 -3 -5
-23 6 -24 6 -10 -11 9 -11 10 -16 3 -11 -7 4 -13 3 -13 -2 0 -5 11 -14 25 -20
14 -6 25 -15 26 -19 9 -72 13 -348 6 -360 -4 -6 -3 -14 3 -18 6 -4 8 -11 5
-16 -12 -19 -14 -50 -3 -43 7 5 9 2 5 -8 -3 -9 -1 -20 5 -26 6 -6 6 -12 -3
-17 -8 -6 -10 -4 -4 5 5 9 4 11 -4 6 -9 -6 -8 -13 3 -31 10 -15 12 -26 6 -30
-15 -9 -13 -48 3 -39 10 6 10 4 0 -7 -14 -14 -18 -53 -5 -45 11 7 12 3 16
-147 3 -106 1 -127 -10 -123 -8 3 -14 1 -14 -4 0 -6 8 -10 17 -10 15 0 14 -2
-3 -15 -16 -13 -16 -14 -1 -9 9 3 17 1 17 -5 0 -6 -6 -11 -12 -12 -9 0 -9 -2
1 -6 11 -5 11 -7 0 -14 -10 -6 -11 -9 -1 -9 6 0 12 -5 12 -11 0 -5 -4 -7 -10
-4 -5 3 -10 1 -10 -4 0 -6 6 -11 13 -11 8 0 7 -4 -3 -10 -10 -6 -11 -10 -2
-10 6 0 12 -5 12 -11 0 -5 -6 -7 -12 -3 -9 5 -9 2 1 -9 11 -14 11 -17 0 -18
-10 0 -11 -2 -1 -6 6 -2 12 -9 12 -14 0 -6 -6 -7 -12 -3 -8 5 -7 0 2 -11 9
-11 10 -16 3 -11 -9 5 -13 0 -13 -14 0 -12 4 -19 8 -16 5 3 9 -1 9 -9 0 -8 -4
-12 -8 -9 -4 2 -7 -25 -7 -60 1 -36 5 -63 9 -60 4 2 11 -1 15 -8 4 -7 4 -10
-1 -6 -13 13 -35 -12 -27 -31 4 -9 7 -36 7 -61 -1 -25 4 -48 10 -52 6 -5 5 -8
-3 -8 -7 0 -10 -5 -6 -12 4 -6 7 -26 6 -45 -1 -24 3 -33 15 -33 12 0 13 -3 3
-15 -6 -8 -9 -23 -5 -35 4 -14 2 -20 -9 -20 -10 0 -13 7 -11 20 2 11 0 18 -5
15 -4 -3 -7 -13 -5 -23 2 -9 4 -29 4 -44 1 -19 6 -28 19 -29 13 0 14 -2 2 -6
-8 -3 -18 -11 -22 -17 -7 -9 -13 33 -9 57 1 5 -3 6 -8 3 -5 -4 -8 -18 -5 -32
3 -14 0 -42 -5 -62 -8 -26 -7 -38 1 -43 6 -4 -1 -6 -15 -6 -26 2 -40 27 -15
27 6 0 8 3 5 7 -4 3 -2 12 5 20 8 11 7 12 -6 7 -22 -9 -21 22 2 36 15 10 15
11 -5 7 -15 -3 -20 -1 -16 9 3 8 12 14 21 14 13 0 12 3 -4 15 -10 8 -15 15
-10 15 5 0 3 7 -4 15 -11 13 -10 14 6 8 17 -6 17 -5 5 10 -7 9 -10 17 -5 17 5
0 2 5 -6 11 -12 8 -9 9 10 4 24 -6 24 -5 6 9 -14 12 -16 16 -5 16 11 0 11 2 1
9 -8 5 -13 27 -12 62 0 30 -2 157 -4 284 -4 174 -2 231 7 237 9 6 9 8 -2 8
-11 0 -11 3 -1 15 10 12 10 15 -1 15 -11 0 -11 2 1 10 13 9 13 10 0 10 -10 0
-11 3 -4 8 15 10 24 51 13 58 -5 3 -6 11 -2 17 14 22 10 92 -5 110 -14 16 -14
17 0 12 19 -8 19 18 0 37 -18 18 -15 38 6 31 16 -5 16 -5 0 8 -14 11 -17 34
-19 119 -2 58 0 111 4 117 4 7 3 14 -3 18 -7 4 -7 12 0 25 6 12 7 21 0 25 -5
3 -7 12 -4 20 4 8 10 12 15 9 15 -9 10 3 -8 17 -15 12 -16 12 -8 -1 4 -8 5
-12 0 -8 -4 4 -7 63 -6 132 2 98 -1 126 -11 126 -9 0 -9 3 2 11 12 9 13 12 1
16 -11 5 -11 7 0 14 12 7 12 9 0 9 -11 0 -11 3 -1 15 10 12 10 15 -1 15 -11 0
-11 2 1 10 12 8 12 10 1 10 -11 0 -11 3 -1 15 10 12 10 15 -1 15 -11 0 -11 2
1 10 12 8 12 10 1 10 -11 0 -11 3 -1 15 10 12 10 15 -1 15 -11 0 -11 2 1 10
12 8 12 10 -5 10 -11 0 -15 4 -10 8 14 10 15 42 1 42 -6 0 -4 5 4 10 8 5 10
10 5 10 -7 0 -10 21 -9 50 0 28 -3 50 -9 50 -6 0 -6 5 1 13 5 6 9 38 8 70 0
31 3 57 7 57 5 0 5 6 0 13 -11 18 -13 38 -2 31 5 -3 9 -1 9 5 0 5 -5 13 -10
16 -8 5 -7 12 2 23 11 13 11 14 0 8 -11 -7 -12 -4 -3 12 8 15 7 23 -4 32 -16
13 -10 35 6 25 5 -4 9 3 9 15 0 12 -4 19 -8 16 -5 -3 -9 1 -9 9 0 8 4 12 9 9
4 -3 8 5 8 17 0 12 2 20 5 18 2 -3 7 -50 10 -104z m105 101 c0 -2 -7 -7 -16
-10 -8 -3 -12 -2 -9 4 6 10 25 14 25 6z m-523 -48 c-3 -7 -5 -2 -5 12 0 14 2
19 5 13 2 -7 2 -19 0 -25z m523 23 c0 -5 -10 -11 -22 -14 -22 -6 -22 -6 -4 8
23 17 26 18 26 6z m10 -25 c0 -2 -9 -6 -20 -9 -11 -3 -18 -1 -14 4 5 9 34 13
34 5z m-260 -86 c0 -5 -5 -10 -11 -10 -5 0 -7 5 -4 10 3 6 8 10 11 10 2 0 4
-4 4 -10z m9 -54 c1 -6 2 -36 4 -66 1 -30 5 -60 10 -67 4 -6 3 -14 -3 -18 -5
-3 -10 -12 -10 -18 0 -7 4 -6 10 3 11 18 11 18 15 -40 3 -34 1 -40 -5 -22 -12
30 -15 28 -14 -9 0 -17 7 -35 15 -40 11 -7 11 -9 0 -9 -8 0 -11 -6 -7 -16 3
-8 2 -12 -3 -9 -5 3 -13 1 -16 -5 -4 -6 -3 -10 2 -9 4 1 15 1 23 0 13 -1 13
-2 0 -11 -11 -7 -11 -10 -2 -10 7 0 10 -5 6 -11 -3 -6 0 -15 7 -20 12 -7 11
-9 -1 -9 -13 0 -13 -1 0 -10 13 -8 13 -10 -2 -10 -19 0 -14 -28 6 -42 7 -5 7
-8 -1 -8 -7 0 -13 -7 -13 -16 0 -8 4 -13 8 -10 4 2 7 -39 5 -92 -2 -112 -2
-278 0 -372 1 -36 -1 -75 -5 -87 -4 -13 -4 -23 0 -23 7 0 7 -101 1 -130 -3
-10 5 -16 22 -18 l25 -3 -3 -156 c-1 -98 -7 -161 -14 -169 -9 -11 -9 -14 1
-14 8 0 9 -10 5 -30 -5 -22 -3 -30 7 -30 10 0 10 -2 -1 -9 -7 -5 -10 -14 -7
-20 5 -7 -1 -10 -16 -8 -17 1 -24 10 -29 32 -3 17 0 37 5 45 6 8 6 12 1 7 -11
-9 -46 23 -38 36 9 15 11 77 2 77 -14 0 -20 -18 -9 -25 8 -5 6 -14 -4 -30 -14
-21 -14 -25 0 -36 12 -10 12 -14 2 -22 -10 -6 -8 -7 4 -3 10 3 20 1 23 -4 4
-6 0 -10 -7 -11 -10 0 -10 -2 0 -6 6 -2 12 -9 12 -14 0 -6 -4 -8 -9 -4 -5 3
-13 0 -17 -6 -4 -7 -3 -9 4 -5 6 3 13 2 17 -4 3 -5 0 -10 -8 -10 -12 0 -14
-13 -13 -56 1 -30 -1 -57 -6 -60 -8 -5 -12 55 -8 105 1 13 -2 21 -7 18 -6 -4
-10 0 -10 8 0 8 4 12 8 10 4 -3 9 2 12 10 4 8 1 12 -6 9 -10 -3 -13 20 -12 96
0 55 -2 100 -5 100 -6 0 -10 77 -13 230 -1 63 -6 118 -12 122 -6 5 -6 8 1 8 7
0 11 14 9 35 -1 19 2 35 8 35 6 0 6 5 0 13 -6 6 -9 21 -7 32 1 11 -2 23 -9 27
-9 6 -8 8 2 8 11 0 9 4 -5 15 -15 12 -15 14 -2 9 13 -4 16 0 15 15 -1 12 -6
21 -12 21 -5 0 -4 4 3 9 14 9 13 32 -3 43 -6 5 -6 8 1 8 8 0 12 34 14 103 2
131 4 149 13 165 5 7 3 12 -5 13 -7 0 -4 4 7 9 14 6 15 9 5 9 -12 1 -15 14
-15 62 1 34 -2 81 -5 105 -7 46 7 83 28 70 6 -3 9 1 8 11 -2 9 -9 19 -17 21
-11 3 -12 2 -1 -6 11 -7 11 -10 -2 -15 -24 -9 -28 8 -7 32 19 22 37 29 25 9
-4 -7 -3 -8 5 -4 9 6 9 11 1 21 -7 8 -8 20 -4 26 4 8 3 9 -4 5 -7 -4 -12 -3
-12 3 0 5 5 11 12 13 8 3 6 7 -5 11 -10 4 -16 2 -14 -5 1 -6 -5 -13 -13 -15
-12 -4 -12 -3 -2 5 8 5 14 13 15 18 1 5 4 8 7 8 3 -1 14 7 25 18 17 16 17 18
2 13 -13 -6 -17 -2 -17 14 0 12 6 21 13 22 10 0 10 2 0 6 -7 2 -13 8 -13 12 0
12 26 9 29 -3z m-46 -36 c3 -11 1 -18 -4 -14 -5 3 -9 12 -9 20 0 20 7 17 13
-6z m-48 -182 c1 -57 -3 -109 -8 -115 -6 -8 -6 -13 0 -13 10 0 12 -54 3 -64
-9 -8 -12 62 -9 227 1 113 12 86 14 -35z m48 72 c-3 -11 -9 -20 -13 -20 -5 0
-6 9 -3 20 3 11 9 20 13 20 5 0 6 -9 3 -20z m-43 -295 c0 -8 -2 -15 -4 -15 -2
0 -6 7 -10 15 -3 8 -1 15 4 15 6 0 10 -7 10 -15z m3 -100 c-7 -21 -12 -19 -10
4 0 11 5 18 9 15 4 -3 5 -11 1 -19z m-1 -60 c-6 -34 -13 -32 -10 4 1 16 5 28
9 26 3 -3 4 -16 1 -30z m-41 -13 c-7 -13 -7 -22 0 -29 8 -8 7 -13 -2 -18 -7
-5 -10 -4 -5 3 3 6 2 13 -4 17 -10 6 4 45 16 45 2 0 0 -8 -5 -18z m44 -111 c3
-5 2 -12 -3 -15 -5 -3 -9 1 -9 9 0 17 3 19 12 6z m420 -101 c0 -16 -3 -26 -7
-24 -5 3 -7 18 -6 34 3 36 12 29 13 -10z m-468 8 c-3 -8 -6 -5 -6 6 -1 11 2
17 5 13 3 -3 4 -12 1 -19z m-1730 -50 c2 -17 0 -19 -7 -8 -5 8 -6 18 -4 22 8
12 10 10 11 -14z m2203 -2 c0 -3 -4 -8 -10 -11 -5 -3 -10 -1 -10 4 0 6 5 11
10 11 6 0 10 -2 10 -4z m0 -50 c0 -3 -4 -8 -10 -11 -5 -3 -10 -1 -10 4 0 6 5
11 10 11 6 0 10 -2 10 -4z m-264 -72 c1 -9 0 -13 -4 -10 -3 4 -7 14 -8 22 -1
9 0 13 4 10 3 -4 7 -14 8 -22z m251 -6 c-3 -7 -5 -2 -5 12 0 14 2 19 5 13 2
-7 2 -19 0 -25z m-247 -39 c0 -5 -4 -9 -10 -9 -5 0 -10 7 -10 16 0 8 5 12 10
9 6 -3 10 -10 10 -16z m253 -4 c-7 -21 -13 -19 -13 6 0 11 4 18 10 14 5 -3 7
-12 3 -20z m-448 -14 c3 -5 2 -12 -3 -15 -5 -3 -9 1 -9 9 0 17 3 19 12 6z
m449 -50 c-1 -46 -11 -48 -11 -1 0 21 3 38 6 36 3 -2 6 -18 5 -35z m-254 19
c0 -5 -4 -10 -10 -10 -5 0 -10 5 -10 10 0 6 5 10 10 10 6 0 10 -4 10 -10z
m-195 -19 c3 -5 2 -12 -3 -15 -5 -3 -9 1 -9 9 0 17 3 19 12 6z m-38 -43 c-3
-8 -6 -5 -6 6 -1 11 2 17 5 13 3 -3 4 -12 1 -19z m233 14 c0 -5 -7 -9 -15 -9
-8 0 -12 4 -9 9 3 4 9 8 15 8 5 0 9 -4 9 -8z m-230 -53 c0 -4 -7 -10 -16 -13
-14 -5 -15 -4 -4 9 8 10 9 15 1 15 -6 0 -11 8 -11 17 0 15 2 14 15 -3 8 -10
15 -22 15 -25z m220 21 c-10 -6 -11 -10 -2 -10 6 0 12 -4 12 -8 0 -5 -6 -9
-14 -9 -11 0 -14 12 -7 35 1 1 7 2 14 2 8 0 7 -4 -3 -10z m262 -40 c-6 -43
-12 -37 -12 13 0 25 4 37 8 29 5 -7 7 -26 4 -42z m-557 9 c-10 -15 -25 -10
-19 6 4 8 10 12 15 9 5 -3 7 -10 4 -15z m73 -40 c2 -25 0 -28 -12 -17 -10 9
-11 15 -2 20 7 5 6 8 -4 8 -13 0 -13 1 0 10 8 5 15 10 15 10 1 0 2 -14 3 -31z
m-71 6 c0 -8 -4 -15 -8 -15 -4 0 -9 7 -13 15 -3 9 0 15 8 15 7 0 13 -7 13 -15z
m-10 -57 c-3 -7 -5 -2 -5 12 0 14 2 19 5 13 2 -7 2 -19 0 -25z m81 -57 c2 -38
-1 -72 -7 -75 -5 -3 -8 15 -7 45 2 36 -2 53 -13 60 -14 9 -13 10 3 5 13 -5 17
-2 13 8 -4 11 0 26 7 26 1 0 3 -31 4 -69z m482 63 c0 -8 -19 -13 -24 -6 -3 5
1 9 9 9 8 0 15 -2 15 -3z m-436 -12 c3 -5 -1 -9 -9 -9 -8 0 -12 4 -9 9 3 4 7
8 9 8 2 0 6 -4 9 -8z m-119 -21 c3 -5 2 -12 -3 -15 -5 -3 -9 1 -9 9 0 17 3 19
12 6z m552 3 c-3 -3 -12 -4 -19 -1 -8 3 -5 6 6 6 11 1 17 -2 13 -5z m-430 -10
c-3 -3 -12 -4 -19 -1 -8 3 -5 6 6 6 11 1 17 -2 13 -5z m433 -10 c0 -8 -19 -13
-24 -6 -3 5 1 9 9 9 8 0 15 -2 15 -3z m4 -220 c-1 -113 -5 -208 -8 -211 -3 -4
-6 15 -6 40 0 26 -4 47 -10 47 -5 0 -9 21 -8 48 l1 47 7 -45 c9 -57 12 -30 14
115 1 86 -2 113 -14 123 -8 8 -10 11 -4 8 7 -3 14 3 17 14 3 11 7 20 9 20 2 0
3 -93 2 -206z m-558 170 c1 -9 0 -13 -4 -10 -3 4 -7 14 -8 22 -1 9 0 13 4 10
3 -4 7 -14 8 -22z m121 10 c-3 -3 -12 -4 -19 -1 -8 3 -5 6 6 6 11 1 17 -2 13
-5z m-4 -21 c4 -3 3 -11 -2 -17 -5 -6 -11 -27 -14 -46 -3 -27 -4 -23 -5 18 -2
48 5 62 21 45z m-117 -45 c-1 -13 3 -26 9 -30 6 -5 4 -8 -5 -8 -12 0 -12 -2
-2 -9 11 -6 11 -10 0 -19 -10 -8 -13 0 -13 43 0 29 3 52 6 49 3 -2 6 -14 5
-26z m70 -48 c-3 -42 -13 -46 -13 -5 0 19 4 35 8 35 4 0 6 -13 5 -30z m-29
-20 c1 -11 -2 -20 -7 -20 -6 0 -7 17 -1 38 3 8 7 -1 8 -18z m81 -12 c-2 -16 2
-22 11 -20 12 3 12 1 0 -14 -10 -13 -11 -16 -1 -10 11 7 12 -1 7 -37 -5 -29
-3 -47 4 -52 13 -8 5 -25 -12 -25 -7 0 -6 4 3 10 12 8 12 10 -2 15 -11 4 -15
15 -12 32 3 18 1 23 -8 17 -7 -4 -10 -4 -6 1 4 4 -3 16 -15 25 -16 13 -24 15
-29 7 -4 -7 -6 -2 -5 11 2 27 8 28 25 2 7 -11 17 -20 22 -20 15 0 12 40 -2 41
-10 0 -10 2 0 6 6 2 12 11 12 19 0 8 3 14 6 14 3 0 4 -10 2 -22z m-112 -27 c0
-17 -3 -28 -6 -26 -4 2 -7 -2 -7 -10 0 -8 4 -12 9 -9 4 3 8 0 8 -6 0 -6 -8
-10 -17 -8 -29 5 -18 81 13 88 0 0 0 -13 0 -29z m-1629 -27 c-4 -25 -1 -34 12
-36 12 -3 10 -5 -7 -10 -12 -3 -20 -2 -17 2 3 5 1 11 -5 15 -6 4 -7 13 -1 23
4 9 7 25 6 35 -2 9 1 14 7 11 5 -3 7 -21 5 -40z m1658 6 c3 -5 1 -10 -4 -10
-6 0 -11 5 -11 10 0 6 2 10 4 10 3 0 8 -4 11 -10z m2 -42 c2 -18 0 -20 -7 -8
-12 18 -13 30 -2 30 4 0 9 -10 9 -22z m28 13 c3 -5 1 -12 -5 -16 -5 -3 -10 1
-10 9 0 18 6 21 15 7z m-57 -45 c1 -16 -1 -17 -8 -7 -6 11 -9 9 -13 -10 -4
-20 -4 -19 -6 7 -1 35 24 44 27 10z m55 -16 c-3 -11 0 -27 7 -35 11 -13 10
-14 -4 -9 -11 4 -16 16 -14 40 1 18 5 31 9 28 4 -2 5 -13 2 -24z m40 -7 c-7
-52 -13 -54 -13 -5 0 23 4 42 9 42 5 0 7 -17 4 -37z m185 -11 c-7 -9 -8 -13
-2 -9 6 4 10 -6 9 -26 0 -18 4 -41 10 -52 7 -13 11 -117 10 -290 0 -169 4
-273 10 -277 6 -5 5 -8 -2 -8 -7 0 -13 -9 -13 -20 0 -11 6 -20 13 -20 8 0 7
-4 -3 -10 -8 -5 -19 -10 -25 -10 -5 0 -4 4 3 9 11 7 11 9 -1 14 -8 3 -17 15
-20 26 -3 14 -1 19 6 14 7 -4 6 1 -2 10 -7 9 -9 17 -4 17 5 0 9 15 10 33 2 26
0 28 -7 12 -7 -17 -9 -17 -9 -2 -1 9 -7 17 -13 17 -8 0 -9 3 -3 8 13 9 14 92
0 93 -5 0 1 5 15 10 l25 10 -24 20 c-21 17 -21 19 -5 20 17 1 17 2 1 6 -9 2
-15 9 -11 14 3 5 11 7 17 3 7 -3 5 0 -3 8 -9 7 -16 20 -16 28 0 42 -17 125
-25 131 -6 4 -4 9 6 12 9 4 13 3 10 -2 -3 -5 0 -13 6 -17 8 -5 9 -3 4 6 -6 10
-3 12 11 7 19 -7 19 -7 0 8 -10 8 -22 12 -27 10 -4 -3 -11 0 -15 6 -4 7 -3 9
3 6 6 -4 16 0 23 8 7 8 16 13 19 10 4 -2 8 3 8 11 0 12 -8 15 -33 11 -26 -4
-31 -2 -29 11 2 9 4 18 5 20 5 6 6 28 1 37 -13 25 -7 46 12 43 25 -4 32 -58 7
-59 -10 0 -11 -2 -2 -6 21 -8 44 17 31 33 -9 11 -8 14 1 14 9 0 9 4 2 13 -5 6
-8 23 -6 37 4 25 3 25 -9 3 -15 -27 -29 -30 -38 -6 -5 14 0 19 20 23 14 4 34
4 44 2 14 -4 15 -7 5 -20z m-251 -49 c-3 -10 -5 -2 -5 17 0 19 2 27 5 18 2
-10 2 -26 0 -35z m540 -15 c-3 -7 -5 -2 -5 12 0 14 2 19 5 13 2 -7 2 -19 0
-25z m-584 -89 c-9 -33 -20 -4 -14 38 4 37 4 37 12 11 4 -15 5 -37 2 -49z
m204 9 c-2 -13 -4 -3 -4 22 0 25 2 35 4 23 2 -13 2 -33 0 -45z m271 28 c-1
-14 -5 -23 -9 -20 -7 4 0 44 7 44 2 0 3 -11 2 -24z m62 4 c0 -11 -4 -20 -9
-20 -7 0 -8 17 -2 38 4 10 11 -2 11 -18z m17 -22 c-3 -7 -5 -2 -5 12 0 14 2
19 5 13 2 -7 2 -19 0 -25z m-472 12 c3 -5 1 -10 -4 -10 -6 0 -11 5 -11 10 0 6
2 10 4 10 3 0 8 -4 11 -10z m175 -40 c0 -5 -7 -10 -16 -10 -8 0 -12 5 -9 10 3
6 10 10 16 10 5 0 9 -4 9 -10z m-140 -14 c0 -3 -4 -8 -10 -11 -5 -3 -10 -1
-10 4 0 6 5 11 10 11 6 0 10 -2 10 -4z m435 -5 c3 -5 1 -12 -5 -16 -5 -3 -10
1 -10 9 0 18 6 21 15 7z m-545 -5 c0 -2 -7 -7 -16 -10 -8 -3 -12 -2 -9 4 6 10
25 14 25 6z m467 -48 c-3 -7 -5 -2 -5 12 0 14 2 19 5 13 2 -7 2 -19 0 -25z
m-287 -5 c0 -19 -13 -9 -16 12 -1 8 2 13 7 9 5 -3 9 -12 9 -21z m357 -5 c-3
-7 -5 -2 -5 12 0 14 2 19 5 13 2 -7 2 -19 0 -25z m-537 3 c0 -4 -6 -8 -13 -8
-8 0 -14 6 -14 13 0 7 6 10 14 7 7 -3 13 -8 13 -12z m63 -9 c15 -17 15 -18 -6
-19 -12 0 -16 1 -9 4 10 4 10 8 1 19 -17 20 -5 17 14 -4z m512 -20 c-3 -3 -11
0 -18 7 -9 10 -8 11 6 5 10 -3 15 -9 12 -12z m-38 -24 c-3 -7 -5 -2 -5 12 0
14 2 19 5 13 2 -7 2 -19 0 -25z m-440 -20 c-3 -8 -6 -5 -6 6 -1 11 2 17 5 13
3 -3 4 -12 1 -19z m-84 -39 c-7 -25 -10 -21 -17 15 -4 22 -2 25 8 16 8 -6 12
-20 9 -31z m551 23 c2 -4 -4 -8 -14 -8 -10 0 -16 4 -14 8 3 4 9 8 14 8 5 0 11
-4 14 -8z m-10 -58 c3 -8 2 -12 -4 -9 -6 3 -10 10 -10 16 0 14 7 11 14 -7z
m-543 -46 c-2 -40 1 -54 14 -64 16 -12 16 -13 -2 -11 -17 1 -20 9 -22 64 -1
35 2 63 6 63 4 0 6 -23 4 -52z m469 32 c0 -11 -4 -20 -9 -20 -7 0 -8 17 -2 38
4 10 11 -2 11 -18z m-205 -40 c3 -5 -1 -10 -10 -10 -9 0 -13 5 -10 10 3 6 8
10 10 10 2 0 7 -4 10 -10z m302 -80 c2 -11 -1 -20 -6 -20 -15 0 -23 18 -11 25
6 4 7 12 4 18 -4 7 -3 9 1 4 5 -4 10 -16 12 -27z m-551 -34 c0 -19 -3 -37 -6
-40 -3 -3 -5 9 -4 27 2 42 3 47 8 47 2 0 3 -15 2 -34z m439 14 c3 -5 1 -10 -4
-10 -6 0 -11 5 -11 10 0 6 2 10 4 10 3 0 8 -4 11 -10z m100 -10 c3 -5 -1 -10
-10 -10 -9 0 -13 5 -10 10 3 6 8 10 10 10 2 0 7 -4 10 -10z m-538 -192 c-3 -8
-6 -5 -6 6 -1 11 2 17 5 13 3 -3 4 -12 1 -19z m63 8 c0 -3 -4 -8 -10 -11 -5
-3 -10 -1 -10 4 0 6 5 11 10 11 6 0 10 -2 10 -4z m167 -38 c-3 -7 -5 -2 -5 12
0 14 2 19 5 13 2 -7 2 -19 0 -25z m-1530 -40 c-3 -7 -5 -2 -5 12 0 14 2 19 5
13 2 -7 2 -19 0 -25z m1530 -15 c-3 -10 -5 -4 -5 12 0 17 2 24 5 18 2 -7 2
-21 0 -30z m-40 -15 c-3 -8 -6 -5 -6 6 -1 11 2 17 5 13 3 -3 4 -12 1 -19z
m-130 -35 c-3 -10 -5 -2 -5 17 0 19 2 27 5 18 2 -10 2 -26 0 -35z m175 -5 c-9
-9 -12 -7 -12 12 0 19 3 21 12 12 9 -9 9 -15 0 -24z m-166 -43 c-3 -23 -12
-26 -13 -5 -1 11 2 20 7 20 4 0 7 -7 6 -15z m131 -37 c-3 -7 -5 -2 -5 12 0 14
2 19 5 13 2 -7 2 -19 0 -25z m29 7 c-3 -8 0 -16 7 -19 7 -2 5 -5 -4 -5 -12 -1
-16 7 -15 23 0 13 5 22 9 19 5 -3 6 -11 3 -18z m-1806 11 c0 -3 -4 -8 -10 -11
-5 -3 -10 -1 -10 4 0 6 5 11 10 11 6 0 10 -2 10 -4z m1645 -46 c3 -5 1 -10 -4
-10 -6 0 -11 5 -11 10 0 6 2 10 4 10 3 0 8 -4 11 -10z m172 -6 c-3 -3 -12 -4
-19 -1 -8 3 -5 6 6 6 11 1 17 -2 13 -5z m18 -56 c-2 -10 -1 -18 3 -18 4 0 5
-32 4 -70 -2 -41 1 -76 7 -84 8 -9 7 -13 -4 -13 -10 0 -15 11 -15 34 0 19 -4
32 -8 29 -4 -2 -9 7 -10 20 -1 16 2 23 9 19 6 -4 5 2 -2 13 -10 17 -10 23 0
36 11 14 11 16 -4 16 -13 0 -15 3 -6 13 6 8 9 16 6 19 -3 2 1 5 9 5 8 0 13 -8
11 -19z m65 2 c-8 -5 -6 -11 5 -20 11 -10 13 -16 4 -26 -6 -8 -9 -27 -7 -44 3
-16 1 -30 -4 -30 -14 0 -9 80 5 80 8 1 7 5 -4 13 -20 15 -21 47 -1 40 9 -4 10
-8 2 -13z m-243 -25 c0 -8 -4 -12 -9 -9 -5 3 -6 10 -3 15 9 13 12 11 12 -6z
m130 -57 c-3 -8 -6 -5 -6 6 -1 11 2 17 5 13 3 -3 4 -12 1 -19z m10 -80 c0 -13
-1 -17 -4 -10 -3 6 -10 9 -16 5 -7 -4 -6 1 2 10 17 21 17 21 18 -5z m183 8 c0
-2 -7 -7 -16 -10 -8 -3 -12 -2 -9 4 6 10 25 14 25 6z m-127 -66 c-3 -11 -9
-20 -14 -20 -5 0 -5 7 -2 17 5 12 3 14 -7 8 -9 -5 -11 -4 -6 3 12 20 35 14 29
-8z m-56 -12 c-3 -8 -6 -5 -6 6 -1 11 2 17 5 13 3 -3 4 -12 1 -19z m179 -5
c-1 -10 -8 -29 -14 -43 -11 -24 -12 -24 -8 7 4 31 13 53 22 53 2 0 2 -8 0 -17z
m-119 -19 c-3 -3 -12 -4 -19 -1 -8 3 -5 6 6 6 11 1 17 -2 13 -5z m-153 -349
c3 -9 0 -15 -8 -15 -7 0 -13 7 -13 15 0 8 4 15 8 15 4 0 9 -7 13 -15z m6 -95
c0 -5 -2 -10 -4 -10 -3 0 -8 5 -11 10 -3 6 -1 10 4 10 6 0 11 -4 11 -10z m6
-91 c6 -89 8 -103 17 -110 5 -3 2 -9 -7 -12 -13 -5 -16 1 -16 33 0 25 -5 40
-12 41 -7 0 -8 2 -3 5 6 2 9 29 8 60 -3 76 7 62 13 -17z m-1649 -111 c-3 -8
-6 -5 -6 6 -1 11 2 17 5 13 3 -3 4 -12 1 -19z m1920 0 c-3 -8 -6 -5 -6 6 -1
11 2 17 5 13 3 -3 4 -12 1 -19z m-257 -90 c0 -17 -3 -28 -7 -24 -10 10 -11 56
-1 56 4 0 8 -14 8 -32z m404 0 c-1 -18 -2 -34 -4 -35 -9 -9 -3 -29 10 -35 12
-5 12 -7 -3 -7 -12 -1 -16 -6 -11 -13 5 -10 4 -10 -5 -2 -8 7 -9 29 -5 67 7
60 22 79 18 25z m-114 -78 c-8 -5 -10 -10 -4 -10 7 0 14 -8 17 -19 3 -14 0
-17 -15 -13 -13 3 -16 7 -8 12 9 6 9 9 1 14 -13 9 -5 26 12 26 7 0 6 -4 -3
-10z m134 -26 c3 -8 2 -12 -4 -9 -6 3 -10 10 -10 16 0 14 7 11 14 -7z m-394
-24 c8 -5 11 -10 5 -10 -5 0 -17 5 -25 10 -8 5 -10 10 -5 10 6 0 17 -5 25 -10z
m-13 -42 c-3 -8 -6 -5 -6 6 -1 11 2 17 5 13 3 -3 4 -12 1 -19z m221 -44 c9
-29 8 -35 -3 -30 -9 3 -13 -2 -12 -15 1 -10 8 -19 16 -19 8 0 12 -3 8 -6 -3
-4 -14 -3 -24 1 -10 5 -33 9 -51 11 -19 1 -39 7 -45 13 -9 9 -8 11 6 5 9 -3
24 -1 32 6 11 9 19 10 28 1 10 -8 14 -7 14 4 0 8 -5 11 -10 8 -6 -4 -8 0 -4
10 4 10 1 17 -6 18 -9 0 -9 2 1 6 6 2 12 9 12 14 0 6 -4 7 -10 4 -5 -3 -10 -1
-10 4 0 6 5 11 11 11 5 0 7 6 3 13 -4 6 2 4 13 -6 11 -9 25 -33 31 -53z m-253
8 c-3 -3 -11 0 -18 7 -9 10 -8 11 6 5 10 -3 15 -9 12 -12z m50 9 c3 -5 2 -12
-3 -15 -5 -3 -9 1 -9 9 0 17 3 19 12 6z m-20 -36 c25 0 32 -32 8 -38 -13 -3
-11 -5 7 -6 23 -1 23 -3 7 -12 -20 -12 -27 -9 -31 13 -3 20 -17 39 -25 34 -4
-3 -8 1 -8 9 0 8 5 11 11 7 6 -4 20 -7 31 -7z m-163 -27 c-2 -10 -7 -18 -11
-18 -4 0 -7 8 -8 18 -1 10 4 19 11 19 8 0 11 -8 8 -19z m3 -37 c3 -5 1 -12 -5
-16 -5 -3 -10 1 -10 9 0 18 6 21 15 7z m188 -43 c-9 -16 -20 -7 -18 15 4 32 6
34 14 12 5 -11 7 -23 4 -27z m-120 -9 c-8 -8 -13 -7 -18 2 -5 8 -4 10 3 5 7
-4 12 -2 12 5 0 7 3 9 7 6 4 -4 2 -12 -4 -18z m511 -8 c3 -5 0 -11 -7 -14 -8
-3 -14 1 -14 9 0 16 13 19 21 5z m-440 -16 c-4 -8 -8 -15 -10 -15 -2 0 -4 7
-4 15 0 8 4 15 10 15 5 0 7 -7 4 -15z m-124 -4 c0 -6 -4 -12 -8 -15 -5 -3 -9
1 -9 9 0 8 4 15 9 15 4 0 8 -4 8 -9z m40 -41 c0 -5 -5 -12 -10 -15 -6 -4 -9
-2 -8 3 2 6 -1 10 -7 11 -13 1 -13 -22 0 -31 5 -4 -1 -8 -14 -8 -19 0 -22 3
-13 12 9 9 9 15 -1 27 -9 11 -9 13 0 8 6 -4 14 -3 18 2 6 11 35 3 35 -9z
m-1505 -49 c3 -5 2 -12 -3 -15 -5 -3 -9 1 -9 9 0 17 3 19 12 6z m1543 -66 c-3
-3 -9 2 -12 12 -6 14 -5 15 5 6 7 -7 10 -15 7 -18z m-178 -10 c0 -8 -4 -15
-10 -15 -5 0 -7 7 -4 15 4 8 8 15 10 15 2 0 4 -7 4 -15z m-254 -179 c-2 -12
-9 -20 -16 -18 -9 2 -11 -6 -7 -28 6 -25 4 -28 -7 -18 -16 16 -4 54 16 50 7
-1 3 6 -10 16 l-23 18 25 0 c20 0 25 -4 22 -20z m379 -6 c-3 -5 -12 -10 -18
-10 -7 0 -6 4 3 10 19 12 23 12 15 0z m-1447 -25 c-3 -3 -9 2 -12 12 -6 14 -5
15 5 6 7 -7 10 -15 7 -18z m1030 -60 c-3 -28 -6 -29 -28 -15 -12 8 -12 10 5
11 13 0 15 3 6 6 -11 5 -11 7 0 14 19 12 19 12 17 -16z m-57 -7 c-4 -12 -13
-24 -19 -26 -14 -4 -4 29 12 40 16 11 16 10 7 -14z m-508 -181 c-13 -21 -12
-37 3 -37 9 0 12 5 8 12 -4 7 -3 8 4 4 7 -4 12 -14 12 -22 0 -8 -4 -12 -10 -9
-5 3 -10 -2 -11 -12 0 -16 -1 -16 -9 2 -6 14 -9 16 -10 5 -2 -8 -2 -19 -1 -25
1 -5 -5 -2 -12 7 -8 10 -17 15 -21 11 -4 -4 -4 1 0 11 5 14 9 15 15 4 5 -7 9
-10 10 -5 5 26 4 33 -5 45 -7 9 -5 12 5 10 8 -2 13 3 11 10 -1 8 2 11 8 7 6
-3 7 -12 3 -18z m-395 -42 c-3 -3 -9 2 -12 12 -6 14 -5 15 5 6 7 -7 10 -15 7
-18z m357 -67 c-1 -13 0 -15 2 -5 2 9 9 17 14 17 6 0 8 -9 4 -20 -3 -11 1 -30
10 -44 11 -16 13 -26 6 -31 -7 -3 -11 2 -11 14 0 11 -5 23 -11 26 -7 5 -9 -3
-6 -22 3 -18 0 -30 -7 -30 -7 0 -12 25 -14 65 -1 36 1 61 6 58 5 -3 8 -16 7
-28z m103 -31 c-1 -2 3 -12 11 -21 12 -14 12 -17 1 -14 -8 2 -14 -3 -15 -11 0
-8 -5 -16 -12 -18 -12 -4 -12 14 0 34 5 9 3 11 -6 7 -8 -3 -14 1 -14 9 0 9 7
12 20 9 15 -4 18 -2 12 9 -5 8 -5 11 -1 7 4 -3 6 -8 4 -11z m-435 -34 c-3 -7
1 -13 8 -13 11 0 11 -3 -1 -10 -11 -7 -11 -10 -2 -10 7 0 10 -5 6 -11 -4 -8
-9 -7 -15 2 -8 12 -11 11 -19 -1 -8 -12 -9 -9 -6 10 3 14 5 27 6 30 2 3 2 8 2
11 -1 3 5 6 13 6 7 0 11 -6 8 -14z m342 -72 c-6 -5 -25 10 -25 20 0 5 6 4 14
-3 8 -7 12 -15 11 -17z m102 -23 c-3 -8 -6 -5 -6 6 -1 11 2 17 5 13 3 -3 4
-12 1 -19z m-237 -73 c0 -2 -6 -5 -13 -8 -8 -3 -14 1 -14 8 0 7 6 11 14 8 7
-3 13 -6 13 -8z"/>
<path d="M9803 6545 c0 -19 4 -32 9 -29 9 6 7 64 -2 64 -4 0 -7 -16 -7 -35z"/>
<path d="M10010 5850 c8 -5 20 -10 25 -10 6 0 3 5 -5 10 -8 5 -19 10 -25 10
-5 0 -3 -5 5 -10z"/>
<path d="M10010 5825 c10 -12 10 -15 -1 -15 -11 0 -11 -2 1 -10 10 -7 11 -10
2 -10 -10 0 -10 -4 0 -20 11 -17 11 -22 0 -29 -10 -6 -10 -10 2 -20 12 -10 15
-3 18 48 2 44 -1 62 -10 66 -22 8 -25 6 -12 -10z"/>
<path d="M10000 5686 c0 -2 8 -10 18 -17 15 -13 16 -12 3 4 -13 16 -21 21 -21
13z"/>
<path d="M10059 5117 c-2 -48 -1 -87 3 -87 9 0 15 124 7 152 -3 13 -8 -16 -10
-65z"/>
<path d="M9815 5350 c-3 -5 -1 -10 4 -10 6 0 11 5 11 10 0 6 -2 10 -4 10 -3 0
-8 -4 -11 -10z"/>
<path d="M9815 5300 c-3 -5 -1 -10 4 -10 6 0 11 5 11 10 0 6 -2 10 -4 10 -3 0
-8 -4 -11 -10z"/>
<path d="M9850 5260 c0 -5 5 -10 11 -10 5 0 7 5 4 10 -3 6 -8 10 -11 10 -2 0
-4 -4 -4 -10z"/>
<path d="M9815 5250 c-3 -5 -1 -10 4 -10 6 0 11 5 11 10 0 6 -2 10 -4 10 -3 0
-8 -4 -11 -10z"/>
<path d="M9859 5195 c-6 -21 -3 -32 9 -47 8 -10 20 -18 25 -18 6 0 2 7 -9 15
-16 13 -16 14 -1 9 9 -3 17 -1 17 5 0 6 -6 11 -14 11 -8 0 -18 5 -22 11 -4 8
1 9 17 4 19 -5 21 -4 9 4 -16 12 -29 14 -31 6z"/>
<path d="M9854 5126 c1 -8 5 -18 8 -22 4 -3 5 1 4 10 -1 8 -5 18 -8 22 -4 3
-5 -1 -4 -10z"/>
<path d="M9880 5109 c0 -5 5 -7 10 -4 6 3 10 8 10 11 0 2 -4 4 -10 4 -5 0 -10
-5 -10 -11z"/>
<path d="M9875 5010 c3 -5 8 -10 11 -10 2 0 4 5 4 10 0 6 -5 10 -11 10 -5 0
-7 -4 -4 -10z"/>
<path d="M9903 4985 c0 -22 2 -30 4 -17 2 12 2 30 0 40 -3 9 -5 -1 -4 -23z"/>
<path d="M9825 5001 c-3 -5 -2 -12 3 -15 5 -3 9 1 9 9 0 17 -3 19 -12 6z"/>
<path d="M9872 4916 c-2 -22 0 -27 7 -16 5 8 8 17 5 21 -2 4 4 9 13 11 16 3
15 5 -2 9 -18 5 -21 1 -23 -25z"/>
<path d="M9902 4900 c0 -14 2 -19 5 -12 2 6 2 18 0 25 -3 6 -5 1 -5 -13z"/>
<path d="M9884 4806 c1 -8 5 -18 8 -22 4 -3 5 1 4 10 -1 8 -5 18 -8 22 -4 3
-5 -1 -4 -10z"/>
<path d="M9870 4610 c-23 -7 -23 -8 -3 -9 12 -1 25 4 28 9 3 6 5 10 3 9 -2 -1
-14 -5 -28 -9z"/>
<path d="M9816 2438 c3 -5 10 -6 15 -3 13 9 11 12 -6 12 -8 0 -12 -4 -9 -9z"/>
<path d="M9039 13148 c-6 -20 -5 -38 2 -49 6 -10 9 -4 9 19 0 17 -2 32 -5 32
-3 0 -5 -1 -6 -2z"/>
<path d="M9110 13040 c0 -5 5 -10 10 -10 6 0 10 5 10 10 0 6 -4 10 -10 10 -5
0 -10 -4 -10 -10z"/>
<path d="M9421 12734 c0 -11 3 -14 6 -6 3 7 2 16 -1 19 -3 4 -6 -2 -5 -13z"/>
<path d="M9411 12604 c0 -11 3 -14 6 -6 3 7 2 16 -1 19 -3 4 -6 -2 -5 -13z"/>
<path d="M9916 12192 c7 -4 14 -16 17 -27 4 -15 5 -14 6 8 1 20 -4 27 -16 27
-12 0 -14 -3 -7 -8z"/>
<path d="M10089 10985 c-1 -8 -2 -34 -3 -57 -3 -69 -18 -192 -23 -202 -3 -5 0
-7 8 -4 15 5 25 65 31 196 2 45 1 82 -4 82 -4 0 -9 -7 -9 -15z"/>
<path d="M10062 10635 c-2 -49 1 -75 8 -75 7 0 10 23 9 63 -1 35 1 69 5 75 4
7 1 12 -6 12 -9 0 -14 -21 -16 -75z"/>
<path d="M10062 10485 c0 -16 2 -22 5 -12 2 9 2 23 0 30 -3 6 -5 -1 -5 -18z"/>
<path d="M10070 10160 c0 -5 5 -10 11 -10 5 0 7 5 4 10 -3 6 -8 10 -11 10 -2
0 -4 -4 -4 -10z"/>
<path d="M9998 10063 c7 -3 16 -2 19 1 4 3 -2 6 -13 5 -11 0 -14 -3 -6 -6z"/>
<path d="M10124 9426 c1 -8 5 -18 8 -22 4 -3 5 1 4 10 -1 8 -5 18 -8 22 -4 3
-5 -1 -4 -10z"/>
<path d="M10050 9360 c0 -5 -1 -13 -2 -17 -2 -3 5 -7 15 -9 11 -1 17 4 17 17
0 10 -7 19 -15 19 -8 0 -15 -4 -15 -10z"/>
<path d="M10047 9306 c-7 -16 1 -26 20 -26 7 0 13 9 13 20 0 23 -25 27 -33 6z"/>
<path d="M10053 9213 c6 -39 12 -49 22 -34 3 6 1 11 -5 11 -6 0 -8 5 -3 13 14
22 13 44 -3 44 -12 0 -14 -9 -11 -34z"/>
<path d="M10062 9111 c1 -16 5 -28 9 -26 6 5 0 55 -7 55 -3 0 -3 -13 -2 -29z"/>
<path d="M10145 8980 c3 -5 8 -10 11 -10 2 0 4 5 4 10 0 6 -5 10 -11 10 -5 0
-7 -4 -4 -10z"/>
<path d="M10090 8760 c0 -5 5 -10 11 -10 5 0 7 5 4 10 -3 6 -8 10 -11 10 -2 0
-4 -4 -4 -10z"/>
<path d="M10041 8737 c-9 -12 -8 -16 3 -20 19 -7 27 4 17 21 -6 10 -10 10 -20
-1z"/>
<path d="M10076 8701 c-4 -5 3 -7 14 -4 23 6 26 13 6 13 -8 0 -17 -4 -20 -9z"/>
<path d="M10162 8640 c0 -14 2 -19 5 -12 2 6 2 18 0 25 -3 6 -5 1 -5 -13z"/>
<path d="M10161 8584 c0 -11 3 -14 6 -6 3 7 2 16 -1 19 -3 4 -6 -2 -5 -13z"/>
<path d="M10160 7171 c0 -25 6 -27 13 -6 4 8 2 17 -3 20 -6 4 -10 -3 -10 -14z"/>
<path d="M10163 7125 c0 -8 4 -12 9 -9 5 3 6 10 3 15 -9 13 -12 11 -12 -6z"/>
<path d="M10047 4019 c-15 -9 -16 -13 -6 -25 10 -12 10 -15 -2 -12 -16 4 -21
-59 -6 -69 6 -4 7 -1 2 7 -5 8 -4 11 3 7 11 -8 11 -25 -1 -43 -4 -7 -6 -23 -5
-36 2 -20 7 -24 25 -20 13 2 20 9 16 15 -4 6 0 8 9 5 8 -4 15 -1 15 7 0 7 -6
11 -12 9 -13 -5 -13 -6 -15 94 -1 39 -3 72 -3 72 -1 0 -10 -5 -20 -11z"/>
<path d="M10245 3660 c3 -5 8 -10 11 -10 2 0 4 5 4 10 0 6 -5 10 -11 10 -5 0
-7 -4 -4 -10z"/>
<path d="M10240 3550 c0 -5 5 -10 10 -10 6 0 10 5 10 10 0 6 -4 10 -10 10 -5
0 -10 -4 -10 -10z"/>
<path d="M10080 3223 c0 -13 5 -23 10 -23 13 0 13 11 0 30 -8 12 -10 11 -10
-7z"/>
<path d="M10276 3082 c-4 -7 -1 -43 4 -49 7 -9 4 -29 -5 -35 -7 -5 -6 -8 1 -8
6 0 10 -16 9 -37 -1 -21 3 -44 9 -52 9 -12 8 -13 -3 -6 -10 6 -12 4 -6 -5 4
-7 10 -40 11 -74 7 -124 11 -164 18 -175 4 -6 1 -11 -6 -11 -8 0 -9 -3 -2 -8
5 -4 10 -20 9 -37 -1 -16 2 -39 6 -50 3 -11 10 -47 14 -80 10 -83 13 -104 20
-149 6 -31 4 -37 -7 -30 -11 6 -10 5 1 -9 7 -9 10 -17 6 -17 -4 0 -2 -6 4 -13
6 -8 8 -17 4 -20 -3 -4 1 -7 10 -7 20 0 23 30 5 49 -10 11 -10 13 0 7 7 -5 12
-1 12 9 0 9 -4 14 -9 10 -6 -3 -10 9 -11 27 -3 79 -8 173 -10 178 0 3 -3 32
-5 65 -8 99 -13 146 -25 230 -6 44 -14 98 -16 120 -2 22 -7 60 -11 85 -3 25
-5 55 -4 67 2 22 -14 40 -23 25z"/>
<path d="M10097 3044 c-7 -8 3 -34 13 -34 5 0 8 9 7 20 -1 20 -8 25 -20 14z"/>
<path d="M10109 2998 c-5 -18 -6 -38 -1 -34 7 8 12 36 6 36 -2 0 -4 -1 -5 -2z"/>
<path d="M10151 2944 c0 -11 3 -14 6 -6 3 7 2 16 -1 19 -3 4 -6 -2 -5 -13z"/>
<path d="M10168 2813 c7 -3 16 -2 19 1 4 3 -2 6 -13 5 -11 0 -14 -3 -6 -6z"/>
<path d="M10166 2422 c-3 -5 1 -9 9 -9 8 0 12 4 9 9 -3 4 -7 8 -9 8 -2 0 -6
-4 -9 -8z"/>
<path d="M10129 2378 c0 -22 -1 -22 -9 -3 -7 16 -9 14 -7 -12 1 -28 5 -33 27
-32 14 0 19 3 13 6 -8 3 -11 14 -7 28 3 12 1 26 -5 29 -7 5 -11 -2 -12 -16z"/>
<path d="M9965 2359 c-4 -6 -5 -12 -2 -15 2 -3 7 2 10 11 7 17 1 20 -8 4z"/>
<path d="M10110 2306 c0 -8 4 -17 9 -21 6 -3 9 4 8 15 -1 23 -17 28 -17 6z"/>
<path d="M10137 2279 c-3 -12 2 -24 14 -33 18 -12 18 -14 4 -20 -9 -3 -22 -3
-27 1 -7 4 -8 1 -3 -6 4 -7 16 -11 26 -8 11 3 17 2 15 -2 -3 -4 0 -13 5 -21 6
-10 8 0 5 30 -2 25 -5 47 -6 50 -1 3 -2 8 -2 12 3 17 -27 15 -31 -3z m28 -27
c-3 -3 -11 0 -18 7 -9 10 -8 11 6 5 10 -3 15 -9 12 -12z"/>
<path d="M9859 2284 c6 -3 8 -11 5 -18 -3 -7 3 -19 13 -27 16 -13 17 -12 5 2
-7 9 -11 22 -10 29 2 7 -3 14 -10 16 -7 1 -8 0 -3 -2z"/>
<path d="M10200 2270 c0 -5 5 -10 11 -10 5 0 7 -4 4 -10 -3 -6 1 -7 9 -4 21 8
20 11 -4 24 -14 7 -20 7 -20 0z"/>
<path d="M10190 2206 c0 -2 7 -7 16 -10 8 -3 12 -2 9 4 -6 10 -25 14 -25 6z"/>
<path d="M10122 2193 c-13 -5 -7 -23 9 -23 6 0 8 4 4 9 -3 5 3 12 12 14 12 3
13 5 3 5 -8 0 -21 -2 -28 -5z"/>
<path d="M10167 2163 c-11 -10 -8 -27 6 -48 13 -17 14 -17 20 4 4 18 2 21 -10
17 -12 -5 -14 -1 -10 14 5 21 4 24 -6 13z"/>
<path d="M9995 2112 c1 -15 -3 -30 -9 -34 -7 -5 -4 -8 7 -8 13 0 17 7 15 31
-1 17 -5 32 -9 34 -3 3 -5 -8 -4 -23z"/>
<path d="M9721 2104 c0 -11 3 -14 6 -6 3 7 2 16 -1 19 -3 4 -6 -2 -5 -13z"/>
<path d="M9740 2060 c-9 -6 -10 -10 -3 -10 6 0 15 5 18 10 8 12 4 12 -15 0z"/>
<path d="M9842 2041 c1 -18 5 -34 9 -37 8 -4 0 58 -7 65 -3 3 -3 -10 -2 -28z"/>
<path d="M9746 2045 c-25 -11 -26 -13 -8 -17 23 -6 46 5 41 19 -3 6 -15 5 -33
-2z"/>
<path d="M9995 2050 c19 -8 19 -9 -2 -9 -36 -1 -27 -36 17 -68 13 -10 15 -4
12 38 -3 43 -7 49 -25 48 -21 0 -21 -1 -2 -9z"/>
<path d="M9565 2001 c-3 -6 3 -9 14 -8 11 0 17 5 15 9 -7 11 -22 10 -29 -1z"/>
<path d="M9851 1970 c-1 -20 -3 -22 -12 -10 -8 11 -9 9 -3 -10 8 -30 10 -33
21 -29 4 2 5 20 2 39 -5 27 -7 29 -8 10z"/>
<path d="M9580 1950 c0 -6 -4 -8 -10 -5 -6 3 -7 -1 -4 -9 3 -9 14 -16 23 -15
12 0 12 2 2 6 -10 4 -10 7 -1 13 9 5 9 9 1 14 -6 4 -11 2 -11 -4z"/>
<path d="M9793 1953 c-7 -2 -13 -12 -12 -21 0 -11 2 -12 6 -4 2 6 8 10 12 8 4
-3 8 1 8 9 0 8 -1 15 -1 14 -1 0 -7 -3 -13 -6z"/>
<path d="M9578 1903 c7 -3 16 -2 19 1 4 3 -2 6 -13 5 -11 0 -14 -3 -6 -6z"/>
<path d="M9330 1873 c0 -5 5 -15 10 -23 7 -12 9 -10 7 8 -1 19 -17 33 -17 15z"/>
<path d="M9360 1876 c0 -2 7 -9 15 -16 13 -11 14 -10 9 4 -5 14 -24 23 -24 12z"/>
<path d="M9309 1853 c0 -10 -2 -26 -4 -35 -4 -22 8 -23 24 -4 8 10 9 16 1 21
-6 3 -8 10 -5 15 3 5 1 11 -5 15 -5 3 -10 -2 -11 -12z"/>
<path d="M8836 1725 c-3 -9 -10 -14 -15 -11 -8 5 -8 -15 -1 -34 1 -3 2 -9 0
-15 -1 -5 4 -5 11 2 6 6 18 9 25 6 10 -4 12 0 8 11 -3 9 0 24 7 34 7 9 9 14 5
10 -5 -4 -15 -3 -21 2 -9 8 -14 6 -19 -5z m9 -22 c-2 -10 -4 -19 -4 -21 -1 -2
-6 0 -11 3 -8 5 -7 11 1 21 15 18 18 18 14 -3z"/>
<path d="M9525 1711 c-3 -5 -2 -12 3 -15 5 -3 9 1 9 9 0 17 -3 19 -12 6z"/>
<path d="M9535 1671 c-3 -5 -2 -12 3 -15 5 -3 9 1 9 9 0 17 -3 19 -12 6z"/>
<path d="M9010 1656 c0 -2 7 -7 16 -10 8 -3 12 -2 9 4 -6 10 -25 14 -25 6z"/>
<path d="M9021 1622 c-1 -8 -6 -10 -13 -6 -10 5 -10 4 -1 -6 15 -16 28 -8 20
12 -4 11 -6 11 -6 0z"/>
<path d="M8843 1455 c-3 -9 -3 -18 -1 -21 3 -3 8 4 11 16 6 23 -1 27 -10 5z"/>
<path d="M8815 1341 c-3 -5 -2 -12 3 -15 5 -3 9 1 9 9 0 17 -3 19 -12 6z"/>
<path d="M8856 1313 c-6 -14 -5 -15 5 -6 7 7 10 15 7 18 -3 3 -9 -2 -12 -12z"/>
</g>
</svg>
